<?xml version="1.0" encoding="utf-8"?>
<!-- Generator: Adobe Illustrator 16.0.0, SVG Export Plug-In . SVG Version: 6.00 Build 0)  -->
<!DOCTYPE svg PUBLIC "-//W3C//DTD SVG 1.1//EN" "http://www.w3.org/Graphics/SVG/1.1/DTD/svg11.dtd">
<svg version="1.1" xmlns="http://www.w3.org/2000/svg" xmlns:xlink="http://www.w3.org/1999/xlink" x="0px" y="0px" width="750px"
	 height="500px" viewBox="0 0 750 500" enable-background="new 0 0 750 500" xml:space="preserve">
<g id="BACKGROUND">
	<rect x="-7.765" stroke="#848484" stroke-miterlimit="10" width="757.764" height="522.377"/>
</g>
<g id="OBJECTS">
	<g>
		<rect x="-7.765" y="22.376" fill="none" stroke="#848484" stroke-miterlimit="10" width="750" height="500.001"/>
	</g>
	<g>
		<g>
			<path fill="none" stroke="#515151" stroke-miterlimit="10" d="M535.167-94.33c11.488,0.289,22.961,1.394,34.337,3.308
				c5.057,0.851,10.214,1.909,14.664,4.882c11.372,7.601,14.79,25.028,15.368,40.487c0.532,14.239-0.371,28.552-2.685,42.539
				c-2.292,13.861-5.979,27.634-5.484,41.746c0.498,14.112,6.427,29.186,17.611,34.058c6.656,2.898,14.219,1.732,20.7-1.673
				c6.481-3.406,12.031-8.881,17.146-14.699c5.86-6.661,11.658-14.144,19.443-16.873c8.06-2.824,17.399,0.447,22.871,8.008
				c7.78,10.757,6.911,26.528,7.243,40.692c0.419,17.995,3.754,36.575,13.09,50.774c9.336,14.2,25.678,22.893,40.187,17.565"/>
			<path fill="none" stroke="#515151" stroke-miterlimit="10" d="M533.5-90.703c11.281,0.271,22.545,1.397,33.699,3.355
				c4.956,0.87,10.005,1.949,14.376,4.862c8.981,5.989,13.066,18.052,14.756,30.376c0.419,3.04,0.691,6.096,0.857,9.08
				c0.759,13.889,0.109,27.891-1.923,41.608c-2.019,13.58-5.463,27.101-4.836,40.949c0.359,7.924,2.264,16.142,5.761,22.863
				c2.902,5.564,6.938,10.104,12.1,12.482c1.426,0.658,2.898,1.132,4.399,1.434c5.64,1.142,11.601-0.169,16.91-2.879
				c2.389-1.219,4.664-2.702,6.843-4.355c3.967-3.006,7.654-6.572,11.172-10.224c6.266-6.489,12.535-13.401,20.491-15.806
				c7.903-2.389,16.892,0.668,22.254,8.008c7.654,10.469,7.065,25.725,7.657,39.374c0.055,1.242,0.124,2.486,0.208,3.73
				c1.105,16.14,4.834,32.308,13.457,44.742c9.227,13.412,25.099,21.466,39.136,16.069"/>
			<path fill="none" stroke="#515151" stroke-miterlimit="10" d="M531.833-87.076c11.075,0.254,22.129,1.401,33.061,3.403
				c4.856,0.888,9.797,1.988,14.089,4.843c8.84,5.878,13.004,17.582,14.858,29.574c0.462,2.96,0.782,5.938,0.999,8.851
				c0.986,13.539,0.591,27.23-1.159,40.677c-1.745,13.298-4.938,26.57-4.188,40.153c0.449,8.148,2.366,16.594,5.884,23.577
				c2.908,5.75,6.984,10.512,12.226,13.055c1.451,0.706,2.953,1.224,4.49,1.562c5.795,1.282,11.926-0.047,17.429-2.778
				c2.475-1.229,4.84-2.722,7.106-4.373c4.143-3.008,8.039-6.532,11.776-10.085c6.67-6.317,13.388-12.658,21.539-14.739
				c7.729-1.973,16.384,0.89,21.637,8.007c7.529,10.182,7.219,24.923,8.07,38.056c0.08,1.196,0.174,2.393,0.282,3.588
				c1.418,15.52,5.426,30.863,13.958,42.581c9.167,12.59,24.521,20.038,38.086,14.573"/>
			<path fill="none" stroke="#515151" stroke-miterlimit="10" d="M530.167-83.449c10.868,0.236,21.712,1.404,32.423,3.45
				c4.756,0.907,9.588,2.028,13.801,4.823c8.697,5.769,12.942,17.113,14.961,28.772c0.505,2.881,0.874,5.782,1.142,8.622
				c1.213,13.189,1.07,26.57-0.397,39.747c-1.472,13.017-4.402,26.038-3.54,39.356c0.542,8.373,2.47,17.046,6.006,24.29
				c2.915,5.938,7.032,10.92,12.353,13.628c1.476,0.754,3.008,1.315,4.582,1.688c5.948,1.423,12.25,0.075,17.946-2.677
				c2.561-1.238,5.015-2.742,7.371-4.392c4.317-3.01,8.423-6.492,12.38-9.946c7.075-6.145,14.219-11.919,22.587-13.672
				c7.536-1.579,15.876,1.111,21.021,8.007c7.402,9.894,7.372,24.121,8.483,36.737c0.104,1.149,0.223,2.299,0.354,3.447
				c1.732,14.899,5.994,29.433,14.461,40.419c9.081,11.783,23.942,18.611,37.035,13.076"/>
			<path fill="none" stroke="#515151" stroke-miterlimit="10" d="M528.5-79.823c10.661,0.22,21.296,1.408,31.785,3.498
				c4.655,0.926,9.379,2.068,13.513,4.803c8.556,5.658,12.88,16.643,15.063,27.969c0.548,2.802,0.965,5.625,1.284,8.394
				c1.438,12.839,1.551,25.909,0.365,38.816c-1.199,12.736-3.858,25.506-2.892,38.56c0.637,8.598,2.571,17.499,6.128,25.003
				c2.921,6.125,7.078,11.328,12.479,14.201c1.5,0.802,3.063,1.407,4.674,1.815c6.103,1.564,12.574,0.198,18.464-2.576
				c2.646-1.248,5.19-2.762,7.635-4.41c4.493-3.013,8.808-6.452,12.984-9.808c7.479-5.973,15.03-11.187,23.635-12.606
				c7.328-1.209,15.368,1.333,20.403,8.007c7.277,9.606,7.499,23.321,8.896,35.419c0.128,1.104,0.271,2.206,0.429,3.306
				c2.046,14.279,6.561,28.002,14.962,38.258c8.992,10.976,23.364,17.183,35.985,11.58"/>
			<path fill="none" stroke="#515151" stroke-miterlimit="10" d="M526.833-76.196c10.455,0.202,20.88,1.411,31.146,3.545
				c4.556,0.945,9.171,2.108,13.226,4.783c8.413,5.548,12.818,16.174,15.166,27.167c0.591,2.723,1.056,5.468,1.426,8.165
				c1.666,12.489,2.032,25.248,1.128,37.886c-0.926,12.454-3.309,24.975-2.243,37.763c0.735,8.823,2.674,17.951,6.25,25.717
				c2.928,6.312,7.125,11.736,12.605,14.774c1.524,0.85,3.118,1.498,4.765,1.942c6.257,1.706,12.899,0.32,18.982-2.475
				c2.732-1.257,5.366-2.782,7.899-4.428c4.668-3.015,9.191-6.413,13.588-9.669c7.885-5.8,15.823-10.463,24.683-11.54
				c7.106-0.864,14.86,1.554,19.786,8.007c7.151,9.318,7.649,22.52,9.311,34.101c0.151,1.057,0.32,2.112,0.501,3.165
				c2.359,13.659,7.125,26.57,15.465,36.096c8.901,10.168,22.785,15.756,34.935,10.083"/>
			<path fill="none" stroke="#515151" stroke-miterlimit="10" d="M525.167-72.569c10.247,0.185,20.463,1.415,30.508,3.593
				c4.455,0.964,8.962,2.147,12.938,4.764c8.271,5.438,12.756,15.704,15.27,26.365c0.633,2.643,1.151,5.31,1.567,7.936
				c1.921,12.135,2.513,24.587,1.891,36.955c-0.652,12.173-2.753,24.443-1.596,36.966c0.836,9.047,2.776,18.403,6.373,26.43
				c2.934,6.499,7.171,12.145,12.731,15.348c1.55,0.896,3.173,1.589,4.856,2.069c6.411,1.846,13.224,0.442,19.499-2.375
				c2.819-1.266,5.543-2.802,8.165-4.445c4.842-3.017,9.574-6.373,14.191-9.531c8.289-5.627,16.599-9.751,25.731-10.473
				c6.873-0.542,14.353,1.774,19.168,8.007c7.026,9.03,7.807,21.718,9.725,32.783c0.176,1.011,0.369,2.019,0.574,3.023
				c2.673,13.038,7.687,25.137,15.966,33.935c8.809,9.359,22.208,14.328,33.884,8.587"/>
			<path fill="none" stroke="#515151" stroke-miterlimit="10" d="M523.5-68.942c10.04,0.167,20.047,1.417,29.87,3.64
				c4.354,0.983,8.753,2.188,12.649,4.744c8.129,5.329,12.674,15.24,15.372,25.563c0.671,2.565,1.244,5.153,1.71,7.708
				c2.149,11.784,2.992,23.926,2.652,36.024c-0.379,11.892-2.189,23.911-0.947,36.169c0.939,9.273,2.88,18.855,6.495,27.144
				c2.94,6.685,7.218,12.553,12.858,15.92c1.574,0.944,3.228,1.681,4.948,2.196c6.564,1.987,13.548,0.565,20.017-2.274
				c2.905-1.275,5.718-2.822,8.429-4.464c5.018-3.019,9.959-6.333,14.796-9.392c8.694-5.456,17.361-9.057,26.779-9.406
				c6.632-0.246,13.845,1.996,18.551,8.007c6.9,8.743,7.952,20.918,10.138,31.465c0.2,0.965,0.419,1.926,0.647,2.882
				c2.987,12.418,8.246,23.704,16.469,31.773c8.713,8.55,21.629,12.901,32.833,7.091"/>
			<path fill="none" stroke="#515151" stroke-miterlimit="10" d="M521.833-65.315c9.834,0.15,19.63,1.421,29.231,3.688
				c4.255,1.001,8.545,2.227,12.362,4.724c7.986,5.219,12.609,14.771,15.475,24.761c0.713,2.486,1.335,4.995,1.852,7.478
				c2.379,11.434,3.498,23.266,3.415,35.094c-0.081,11.61-1.62,23.379-0.299,35.373c1.047,9.498,2.982,19.307,6.617,27.857
				c2.947,6.872,7.266,12.961,12.985,16.494c1.599,0.992,3.282,1.772,5.039,2.323c6.719,2.128,13.873,0.688,20.535-2.173
				c2.991-1.284,5.894-2.842,8.693-4.482c5.192-3.021,10.343-6.293,15.399-9.254c9.099-5.283,18.114-8.381,27.827-8.339
				c6.385,0.027,13.324,2.227,17.935,8.007c6.756,8.47,8.104,20.117,10.551,30.146c0.225,0.919,0.468,1.832,0.72,2.741
				c3.301,11.797,8.802,22.27,16.971,29.612c8.613,7.741,21.051,11.474,31.783,5.595"/>
			<path fill="none" stroke="#515151" stroke-miterlimit="10" d="M520.166-61.688c9.627,0.133,19.214,1.424,28.594,3.735
				c4.154,1.021,8.336,2.267,12.074,4.704c7.845,5.108,12.546,14.303,15.577,23.958c0.756,2.407,1.427,4.838,1.994,7.25
				c2.608,11.082,3.98,22.604,4.178,34.163c0.193,11.329-1.047,22.847,0.349,34.577c1.157,9.723,3.085,19.759,6.74,28.57
				c2.953,7.059,7.312,13.369,13.111,17.067c1.624,1.04,3.337,1.863,5.131,2.451c6.873,2.269,14.197,0.81,21.053-2.072
				c3.077-1.293,6.069-2.862,8.958-4.5c5.367-3.024,10.727-6.253,16.003-9.116c9.504-5.111,18.858-7.727,28.875-7.272
				c6.135,0.278,12.815,2.449,17.317,8.007c6.628,8.183,8.257,19.316,10.965,28.828c0.249,0.873,0.517,1.739,0.793,2.6
				c3.614,11.177,9.354,20.835,17.473,27.45c8.509,6.932,20.473,10.046,30.732,4.098"/>
			<path fill="none" stroke="#515151" stroke-miterlimit="10" d="M518.499-58.061c9.42,0.115,18.798,1.428,27.956,3.782
				c4.054,1.04,8.127,2.307,11.786,4.684c7.702,4.999,12.483,13.834,15.68,23.156c0.799,2.328,1.518,4.681,2.137,7.021
				c2.837,10.73,4.462,21.943,4.939,33.232c0.468,11.047-0.468,22.313,0.997,33.78c1.271,9.948,3.188,20.212,6.862,29.284
				c2.96,7.246,7.358,13.777,13.238,17.64c1.648,1.088,3.392,1.955,5.223,2.578c7.026,2.41,14.521,0.932,21.57-1.971
				c3.163-1.303,6.245-2.882,9.222-4.518c5.543-3.026,11.111-6.214,16.607-8.977c9.908-4.939,19.601-7.099,29.923-6.206
				c5.882,0.509,12.307,2.671,16.7,8.006c6.502,7.896,8.405,18.518,11.378,27.51c0.273,0.827,0.566,1.646,0.866,2.458
				c3.929,10.557,9.901,19.402,17.975,25.289c8.399,6.125,19.895,8.619,29.683,2.602"/>
			<path fill="none" stroke="#515151" stroke-miterlimit="10" d="M516.832-54.435c9.214,0.099,18.382,1.431,27.317,3.83
				c3.954,1.058,7.92,2.347,11.5,4.665c7.56,4.888,12.418,13.366,15.781,22.354c0.842,2.249,1.609,4.523,2.278,6.792
				c3.062,10.38,4.943,21.281,5.703,32.301c0.742,10.765,0.116,21.78,1.646,32.983c1.389,10.172,3.29,20.664,6.984,29.998
				c2.965,7.433,7.404,14.186,13.363,18.213c1.674,1.136,3.448,2.046,5.314,2.705c7.182,2.551,14.847,1.055,22.089-1.87
				c3.248-1.313,6.42-2.902,9.486-4.537c5.718-3.028,11.495-6.174,17.211-8.838c10.313-4.767,20.344-6.501,30.971-5.14
				c5.63,0.722,11.799,2.893,16.083,8.007c6.376,7.61,8.559,17.718,11.792,26.192c0.298,0.78,0.614,1.552,0.939,2.316
				c4.241,9.936,10.443,17.97,18.477,23.127c8.286,5.319,19.315,7.191,28.632,1.106"/>
			<path fill="none" stroke="#515151" stroke-miterlimit="10" d="M515.165-50.808c9.007,0.081,17.966,1.435,26.68,3.877
				c3.854,1.077,7.711,2.386,11.212,4.645c7.417,4.778,12.355,12.898,15.884,21.551c0.885,2.17,1.7,4.367,2.421,6.563
				c3.289,10.028,5.424,20.619,6.465,31.371c1.015,10.483,0.704,21.246,2.294,32.186c1.511,10.396,3.393,21.117,7.106,30.711
				c2.972,7.62,7.451,14.594,13.49,18.786c1.698,1.184,3.503,2.138,5.406,2.832c7.335,2.692,15.171,1.177,22.606-1.769
				c3.334-1.322,6.596-2.922,9.75-4.555c5.894-3.031,11.88-6.134,17.815-8.7c10.718-4.595,21.091-5.935,32.019-4.073
				c5.38,0.917,11.291,3.115,15.466,8.006c6.25,7.323,8.708,16.919,12.205,24.875c0.323,0.734,0.664,1.458,1.013,2.175
				c4.556,9.315,10.98,16.542,18.979,20.966c8.167,4.517,18.737,5.764,27.582-0.39"/>
			<path fill="none" stroke="#515151" stroke-miterlimit="10" d="M513.498-47.181c8.8,0.064,17.55,1.438,26.042,3.925
				c3.753,1.096,7.502,2.426,10.924,4.625c7.275,4.668,12.295,12.428,15.986,20.749c0.928,2.091,1.791,4.209,2.563,6.335
				c3.516,9.677,5.904,19.958,7.228,30.439c1.288,10.201,1.296,20.711,2.941,31.39c1.637,10.619,3.495,21.569,7.229,31.425
				c2.978,7.807,7.497,15.002,13.616,19.359c1.724,1.231,3.558,2.229,5.498,2.959c7.489,2.833,15.495,1.299,23.124-1.668
				c3.42-1.331,6.771-2.942,10.015-4.573c6.068-3.033,12.264-6.095,18.419-8.562c11.123-4.422,21.846-5.404,33.066-3.006
				c5.135,1.098,10.783,3.336,14.849,8.006c6.124,7.035,8.865,16.119,12.619,23.556c0.348,0.688,0.713,1.365,1.086,2.034
				c4.869,8.695,11.512,15.118,19.48,18.804c8.041,3.72,18.159,4.336,26.531-1.887"/>
			<path fill="none" stroke="#515151" stroke-miterlimit="10" d="M511.831-43.554c8.594,0.046,17.133,1.441,25.403,3.972
				c3.653,1.115,7.294,2.466,10.637,4.605c7.133,4.558,12.233,11.959,16.089,19.947c0.971,2.012,1.882,4.052,2.705,6.105
				c3.741,9.327,6.384,19.296,7.99,29.509c1.56,9.919,1.892,20.175,3.59,30.593c1.768,10.841,3.598,22.021,7.352,32.138
				c2.984,7.994,7.545,15.41,13.743,19.932c1.748,1.279,3.612,2.321,5.589,3.086c7.644,2.974,15.82,1.422,23.643-1.567
				c3.506-1.34,6.947-2.963,10.279-4.591c6.243-3.036,12.647-6.055,19.022-8.423c11.527-4.25,22.617-4.912,34.114-1.939
				c4.896,1.266,10.276,3.557,14.232,8.006c5.999,6.747,9.021,15.317,13.032,22.238c0.372,0.642,0.762,1.271,1.158,1.893
				c5.183,8.074,12.039,13.7,19.982,16.643c7.91,2.93,17.581,2.909,25.481-3.383"/>
			<path fill="none" stroke="#515151" stroke-miterlimit="10" d="M510.164-39.927c8.387,0.029,16.717,1.444,24.766,4.02
				c3.553,1.134,7.085,2.506,10.349,4.585c6.99,4.448,12.174,11.49,16.191,19.145c1.015,1.933,1.973,3.896,2.848,5.877
				c3.965,8.977,6.862,18.635,8.752,28.579c1.832,9.637,2.49,19.639,4.238,29.796c1.903,11.062,3.701,22.473,7.474,32.852
				c2.991,8.18,7.592,15.818,13.87,20.505c1.772,1.327,3.667,2.413,5.681,3.213c7.797,3.115,16.145,1.544,24.16-1.466
				c3.592-1.35,7.122-2.983,10.543-4.609c6.419-3.038,13.032-6.015,19.627-8.284c11.933-4.078,23.407-4.461,35.162-0.873
				c4.663,1.424,9.77,3.777,13.615,8.006c5.874,6.458,9.177,14.519,13.445,20.92c0.397,0.596,0.812,1.178,1.231,1.751
				c5.497,7.454,12.563,12.292,20.485,14.481c7.776,2.149,17.002,1.482,24.431-4.879"/>
			<path fill="none" stroke="#515151" stroke-miterlimit="10" d="M508.498-36.3c8.179,0.012,16.3,1.448,24.127,4.067
				c3.452,1.153,6.876,2.545,10.061,4.565c6.849,4.338,12.115,11.019,16.295,18.342c1.058,1.853,2.062,3.738,2.989,5.648
				c4.188,8.627,7.34,17.974,9.515,27.647c2.104,9.356,3.092,19.101,4.886,29c2.044,11.281,3.804,22.925,7.597,33.565
				c2.997,8.367,7.638,16.227,13.996,21.079c1.798,1.374,3.722,2.503,5.772,3.34c7.951,3.255,16.469,1.667,24.677-1.366
				c3.679-1.358,7.299-3.002,10.809-4.627c6.593-3.04,13.415-5.975,20.23-8.146c12.337-3.905,24.223-4.053,36.211,0.194
				c4.439,1.573,9.262,3.998,12.997,8.006c5.75,6.17,9.34,13.712,13.859,19.602c0.422,0.55,0.86,1.085,1.305,1.61
				c5.811,6.833,13.083,10.894,20.986,12.32c7.642,1.378,16.425,0.054,23.38-6.375"/>
			<path fill="none" stroke="#515151" stroke-miterlimit="10" d="M506.831-32.673c7.973-0.006,15.884,1.451,23.488,4.114
				c3.353,1.171,6.668,2.585,9.773,4.545c6.706,4.229,12.057,10.549,16.397,17.54c1.102,1.773,2.151,3.581,3.131,5.419
				c4.41,8.278,7.818,17.313,10.277,26.717c2.373,9.074,3.697,18.563,5.534,28.203c2.191,11.5,3.906,23.377,7.719,34.278
				c3.004,8.554,7.685,16.635,14.123,21.652c1.822,1.422,3.776,2.595,5.863,3.467c8.105,3.396,16.794,1.789,25.195-1.265
				c3.765-1.368,7.475-3.022,11.073-4.645c6.768-3.042,13.799-5.936,20.834-8.008c12.742-3.733,25.07-3.688,37.259,1.261
				c4.228,1.716,8.756,4.218,12.38,8.006c5.626,5.88,9.501,12.908,14.273,18.283c0.447,0.503,0.909,0.992,1.377,1.469
				c6.124,6.213,13.607,9.508,21.489,10.158c7.507,0.619,15.846-1.373,22.329-7.872"/>
			<path fill="none" stroke="#515151" stroke-miterlimit="10" d="M505.164-29.046c7.766-0.022,15.468,1.455,22.851,4.162
				c3.252,1.19,6.459,2.625,9.485,4.526C544.064-16.24,549.51-10.29,554-3.621c1.148,1.691,2.241,3.425,3.273,5.191
				c4.633,7.929,8.279,16.657,11.04,25.786c2.627,8.798,4.306,18.023,6.183,27.406c2.344,11.716,4.008,23.83,7.841,34.992
				c3.01,8.741,7.73,17.043,14.249,22.225c1.847,1.47,3.832,2.687,5.955,3.594c8.26,3.538,17.118,1.912,25.713-1.164
				c3.851-1.377,7.65-3.042,11.337-4.663c6.943-3.044,14.184-5.896,21.438-7.869c13.146-3.561,25.955-3.368,38.307,2.327
				c4.026,1.856,8.25,4.438,11.763,8.006c5.505,5.59,9.658,12.104,14.687,16.965c0.473,0.457,0.958,0.898,1.451,1.327
				c6.438,5.593,14.135,8.135,21.99,7.997c7.379-0.13,15.268-2.801,21.279-9.368"/>
			<path fill="none" stroke="#515151" stroke-miterlimit="10" d="M503.497-25.419c7.559-0.04,15.051,1.458,22.213,4.209
				c3.151,1.209,6.25,2.665,9.197,4.506c6.422,4.008,11.949,9.6,16.603,15.935c1.191,1.612,2.329,3.271,3.416,4.962
				c4.84,7.591,8.759,15.997,11.802,24.856c2.9,8.517,4.916,17.482,6.831,26.61c2.503,11.931,4.111,24.282,7.963,35.705
				c3.017,8.928,7.778,17.451,14.376,22.798c1.871,1.518,3.887,2.778,6.047,3.721c8.413,3.679,17.442,2.034,26.23-1.063
				c3.937-1.387,7.825-3.063,11.602-4.682c7.118-3.046,14.567-5.855,22.042-7.73c13.552-3.389,26.882-3.089,39.354,3.394
				c3.839,1.995,7.751,4.65,11.146,8.006c5.392,5.289,9.818,11.297,15.1,15.647c0.498,0.41,1.007,0.805,1.523,1.186
				c6.752,4.972,14.673,6.772,22.493,5.835c7.259-0.87,14.688-4.228,20.229-10.865"/>
			<path fill="none" stroke="#515151" stroke-miterlimit="10" d="M501.83-21.792c7.353-0.057,14.635,1.461,21.574,4.257
				c3.052,1.228,6.042,2.705,8.91,4.486c6.28,3.898,11.887,9.129,16.705,15.133c1.234,1.533,2.42,3.113,3.558,4.733
				c5.067,7.241,9.24,15.336,12.565,23.925c3.174,8.235,5.528,16.941,7.479,25.813c2.67,12.143,4.214,24.734,8.086,36.419
				c3.022,9.115,7.824,17.859,14.502,23.371c1.896,1.565,3.941,2.87,6.138,3.848c8.568,3.819,17.768,2.156,26.749-0.962
				c4.022-1.396,8.001-3.083,11.865-4.7c7.294-3.049,14.952-5.816,22.646-7.592c13.956-3.217,27.854-2.848,40.402,4.46
				c3.665,2.134,7.243,4.872,10.529,8.005c5.267,5.001,9.984,10.48,15.513,14.329c0.524,0.363,1.057,0.711,1.598,1.044
				c7.064,4.352,15.221,5.417,22.994,3.674c7.15-1.604,14.111-5.656,19.179-12.361"/>
			<path fill="none" stroke="#515151" stroke-miterlimit="10" d="M500.163-18.166c17.19-0.18,33.966,8.987,46.366,23.101
				c12.4,14.113,20.63,32.857,25.154,52.515c2.844,12.354,4.316,25.187,8.208,37.132c3.891,11.946,10.77,23.338,20.858,27.919
				c12.627,5.734,26.614-0.357,39.396-5.579c21.022-8.588,45.201-14.592,64.7-1.927c9.714,6.309,17.321,16.769,27.509,21.919
				c14.125,7.143,32.002,1.84,41.625-12.345"/>
		</g>
		<g>
			<path fill="none" stroke="#515151" stroke-miterlimit="10" d="M427.35,727.22c-24.584,1.954-49.33,2.162-74.063,0.624
				c-10.993-0.684-22.252-1.791-32.453-7.137c-26.08-13.664-37.513-50.06-42.418-82.893c-4.519-30.249-5.992-60.965-4.381-91.308
				c1.598-30.07,6.198-60.266,1.785-90.243c-4.415-29.981-20.648-60.803-45.678-68.684c-14.893-4.698-30.755-0.518-43.78,8.19
				c-13.024,8.712-23.563,21.626-33.1,35.174c-10.921,15.509-21.52,32.765-37.485,40.325c-16.528,7.819-37.239,2.936-50.709-11.965
				c-19.165-21.196-21.057-55.021-25.129-85.151c-5.173-38.277-16.705-77.146-40.003-105.339
				c-23.297-28.194-60.237-43.073-89.934-28.477"/>
			<path fill="none" stroke="#515151" stroke-miterlimit="10" d="M430.047,719.116c-24.141,1.943-48.447,2.061-72.717,0.38
				c-10.786-0.749-21.817-1.928-31.835-7.162c-20.538-10.73-32.114-35.439-38.658-61.266c-1.64-6.459-2.964-12.979-4.038-19.378
				c-4.919-29.447-6.857-59.444-5.784-89.148c1.083-29.405,5.223-59.014,0.592-88.396c-2.648-16.802-8.65-33.875-17.692-47.417
				c-7.521-11.244-17.229-20.04-28.831-23.961c-3.164-1.072-6.381-1.752-9.617-2.065c-12.345-1.204-24.798,2.931-35.52,9.915
				c-4.766,3.107-9.229,6.741-13.453,10.71c-7.798,7.317-14.855,15.787-21.531,24.401c-11.821,15.229-23.555,31.372-39.963,38.282
				c-16.294,6.858-36.205,2.355-49.39-12.102c-18.825-20.61-21.19-53.274-25.692-82.245c-0.433-2.775-0.901-5.549-1.406-8.321
				c-6.216-34.029-18.007-67.498-39.279-91.991c-22.88-26.536-58.669-40.153-87.344-25.515"/>
			<path fill="none" stroke="#515151" stroke-miterlimit="10" d="M432.743,711.008c-23.695,1.933-47.561,1.963-71.37,0.135
				c-10.575-0.811-21.38-2.057-31.217-7.183c-20.209-10.529-31.869-34.458-38.684-59.544c-1.712-6.271-3.122-12.618-4.288-18.847
				c-5.318-28.653-7.726-57.933-7.188-86.996c0.567-28.743,4.228-57.761-0.601-86.554c-2.893-17.254-8.977-34.815-18.125-48.909
				c-7.58-11.642-17.428-20.905-29.24-25.157c-3.229-1.168-6.52-1.931-9.841-2.309c-12.709-1.476-25.524,2.742-36.656,9.82
				c-4.944,3.145-9.595,6.82-14.006,10.805c-8.173,7.363-15.688,15.789-22.858,24.241c-12.724,14.952-25.542,29.976-42.441,36.237
				c-16.017,5.933-35.172,1.77-48.069-12.232c-18.489-20.028-21.325-51.528-26.256-79.344c-0.477-2.664-0.987-5.329-1.534-7.982
				c-6.732-32.645-18.917-64.31-39.83-87.298c-22.559-24.8-57.104-37.243-84.757-22.555"/>
			<path fill="none" stroke="#515151" stroke-miterlimit="10" d="M435.438,702.904c-23.252,1.926-46.676,1.857-70.021-0.111
				c-10.369-0.875-20.948-2.19-30.6-7.209c-19.882-10.326-31.627-33.473-38.711-57.814c-1.786-6.093-3.281-12.264-4.541-18.324
				c-5.718-27.856-8.591-56.412-8.59-84.836c0.051-28.085,3.213-56.507-1.793-84.708c-3.144-17.717-9.304-35.758-18.556-50.408
				c-7.64-12.039-17.628-21.767-29.654-26.352c-3.291-1.261-6.656-2.111-10.064-2.557c-13.073-1.738-26.249,2.562-37.789,9.728
				c-5.124,3.184-9.962,6.903-14.562,10.904c-8.546,7.408-16.521,15.791-24.186,24.078c-13.625,14.668-27.482,28.577-44.921,34.191
				c-15.696,5.052-34.139,1.187-46.75-12.368c-18.149-19.439-21.458-49.779-26.819-76.438c-0.519-2.554-1.073-5.106-1.661-7.65
				c-7.251-31.255-19.783-61.145-40.383-82.595c-22.185-23.102-55.538-34.33-82.168-19.6"/>
			<path fill="none" stroke="#515151" stroke-miterlimit="10" d="M438.133,694.795c-22.809,1.916-45.789,1.761-68.674-0.354
				c-10.158-0.936-20.511-2.32-29.981-7.229c-19.552-10.124-31.382-32.493-38.739-56.094c-1.857-5.91-3.438-11.902-4.79-17.798
				c-6.118-27.059-9.458-54.893-9.994-82.678c-0.465-27.426,2.181-55.252-2.985-82.862c-3.402-18.178-9.632-36.703-18.989-51.901
				c-7.698-12.44-17.828-22.633-30.065-27.551c-3.355-1.357-6.794-2.29-10.288-2.803c-13.439-2.004-26.976,2.375-38.924,9.633
				c-5.304,3.224-10.328,6.985-15.115,11.003c-8.921,7.451-17.355,15.789-25.514,23.915c-14.527,14.392-29.378,27.192-47.4,32.148
				c-15.336,4.219-33.106,0.603-45.431-12.503c-17.809-18.851-21.592-48.033-27.382-73.536c-0.563-2.439-1.159-4.881-1.789-7.313
				c-7.768-29.868-20.643-57.983-40.935-77.899c-21.807-21.402-53.97-31.411-79.579-16.638"/>
			<path fill="none" stroke="#515151" stroke-miterlimit="10" d="M440.831,686.691c-22.363,1.904-44.906,1.659-67.327-0.601
				c-9.949-1.001-20.077-2.454-29.364-7.253c-19.226-9.923-31.14-31.509-38.766-54.365c-1.932-5.733-3.595-11.546-5.041-17.272
				c-6.517-26.26-10.325-53.377-11.396-80.524c-0.981-26.76,1.135-53.991-4.179-81.013c-3.665-18.639-9.958-37.646-19.421-53.401
				c-7.757-12.839-18.027-23.493-30.477-28.748c-3.418-1.448-6.932-2.468-10.511-3.044c-13.803-2.271-27.701,2.186-40.058,9.535
				c-5.483,3.265-10.695,7.07-15.671,11.104c-9.295,7.496-18.186,15.791-26.841,23.751c-15.428,14.114-30.745,29.836-49.878,30.106
				c-15.331,0.22-32.073,0.019-44.112-12.64c-17.471-18.263-21.673-46.297-27.945-70.63c-0.602-2.335-1.246-4.661-1.917-6.979
				c-8.286-28.482-21.498-54.82-41.486-73.202c-21.425-19.705-52.405-28.498-76.991-13.681"/>
			<path fill="none" stroke="#515151" stroke-miterlimit="10" d="M443.524,678.583c-21.92,1.899-44.018,1.558-65.979-0.845
				c-9.737-1.061-19.641-2.583-28.746-7.272c-18.896-9.724-30.895-30.529-38.792-52.644c-2.005-5.552-3.766-11.179-5.291-16.747
				c-6.975-25.447-11.193-51.857-12.799-78.363c-1.498-26.102,0.072-52.734-5.374-79.173c-3.932-19.094-10.284-38.586-19.852-54.895
				c-7.817-13.235-18.227-24.359-30.888-29.943c-3.483-1.545-7.071-2.646-10.735-3.294c-14.167-2.533-28.426,2.006-41.192,9.445
				c-5.662,3.306-11.063,7.148-16.225,11.196c-9.67,7.544-19.02,15.799-28.169,23.594c-16.33,13.832-32.749,29.196-52.357,28.062
				c-14.746-0.848-31.04-0.565-42.792-12.776c-17.133-17.676-21.79-44.55-28.508-67.724c-0.646-2.225-1.333-4.44-2.045-6.645
				c-8.803-27.092-22.349-51.657-42.04-68.508c-21.036-18-50.837-25.58-74.401-10.717"/>
			<path fill="none" stroke="#515151" stroke-miterlimit="10" d="M446.221,670.477c-21.475,1.888-43.135,1.457-64.633-1.088
				c-9.529-1.129-19.205-2.72-28.128-7.301c-18.567-9.521-30.651-29.548-38.819-50.913c-2.077-5.374-3.924-10.824-5.542-16.225
				c-7.38-24.646-12.058-50.343-14.202-76.208c-2.013-25.438-1.002-51.472-6.565-77.324c-4.209-19.551-10.613-39.531-20.286-56.392
				c-7.876-13.636-18.426-25.221-31.299-31.141c-3.546-1.637-7.209-2.825-10.959-3.537c-14.531-2.8-29.151,1.818-42.326,9.35
				c-5.843,3.345-11.43,7.232-16.78,11.297c-10.044,7.587-19.852,15.796-29.496,23.429c-17.232,13.555-34.782,28.514-54.836,26.021
				c-14.11-1.754-29.984-1.175-41.472-12.913c-16.758-17.122-21.918-42.81-29.072-64.816c-0.688-2.116-1.418-4.223-2.173-6.314
				c-9.321-25.705-23.193-48.493-42.592-63.808c-20.642-16.3-49.271-22.669-71.812-7.757"/>
			<path fill="none" stroke="#515151" stroke-miterlimit="10" d="M448.917,662.37c-21.029,1.877-42.248,1.359-63.285-1.334
				c-9.319-1.188-18.77-2.846-27.509-7.32c-18.241-9.32-30.362-28.584-38.847-49.189c-2.138-5.193-4.082-10.46-5.792-15.698
				c-7.788-23.845-12.978-48.817-15.606-74.051c-2.582-24.772-2.089-50.209-7.759-75.476c-4.49-20.01-10.939-40.476-20.717-57.892
				c-7.935-14.033-18.625-26.083-31.712-32.335c-3.609-1.733-7.346-3.006-11.181-3.784c-14.896-3.069-29.878,1.634-43.462,9.256
				c-6.021,3.384-11.794,7.314-17.333,11.396c-10.419,7.632-20.684,15.797-30.823,23.27C116.757,402.484,98.057,417,77.574,413.185
				c-13.45-2.509-28.947-1.762-40.152-13.052c-16.417-16.538-22.05-41.066-29.635-61.909c-0.731-2.012-1.505-4-2.3-5.979
				c-9.84-24.318-24.032-45.329-43.145-59.11c-20.241-14.597-47.704-19.755-69.224-4.8"/>
			<path fill="none" stroke="#515151" stroke-miterlimit="10" d="M451.612,654.265c-20.586,1.87-41.363,1.255-61.938-1.578
				c-9.111-1.254-18.334-2.983-26.891-7.347c-17.912-9.119-30.112-27.605-38.873-47.462c-2.211-5.016-4.242-10.102-6.043-15.173
				c-8.189-23.045-13.847-47.299-17.009-71.895c-3.1-24.107-3.187-48.944-8.951-73.63c-4.778-20.466-11.267-41.421-21.15-59.386
				c-7.995-14.434-18.825-26.948-32.124-33.533c-3.673-1.826-7.484-3.185-11.406-4.031c-15.259-3.334-30.602,1.45-44.595,9.162
				c-6.201,3.423-12.161,7.397-17.889,11.494c-10.793,7.676-21.517,15.796-32.151,23.106c-19.035,12.99-38.896,27.018-59.793,21.931
				c-12.788-3.116-27.914-2.347-38.833-13.183c-16.077-15.962-22.175-39.328-30.199-59.01c-0.774-1.899-1.59-3.779-2.427-5.642
				c-10.359-22.935-24.861-42.167-43.698-54.419c-19.83-12.895-46.138-16.836-66.634-1.837"/>
			<path fill="none" stroke="#515151" stroke-miterlimit="10" d="M454.309,646.156c-20.143,1.861-40.479,1.158-60.592-1.822
				c-8.902-1.312-17.899-3.111-26.273-7.365c-17.583-8.915-29.87-26.627-38.899-45.741c-2.285-4.833-4.4-9.74-6.294-14.644
				c-8.592-22.245-14.716-45.782-18.412-69.738c-3.617-23.444-4.295-47.679-10.144-71.785
				c-5.074-20.921-11.595-42.363-21.583-60.883c-8.054-14.832-19.026-27.813-32.535-34.729c-3.737-1.922-7.622-3.363-11.63-4.275
				c-15.624-3.599-31.327,1.266-45.729,9.066c-6.38,3.463-12.528,7.478-18.443,11.59c-11.168,7.725-22.35,15.803-33.479,22.948
				c-19.938,12.713-40.956,26.186-62.273,19.888c-12.135-3.588-26.879-2.933-37.513-13.32
				C14.775,369.97,8.204,347.763-0.251,329.242c-0.817-1.791-1.677-3.558-2.555-5.31c-10.876-21.543-25.681-39.002-44.25-49.72
				c-19.41-11.202-44.57-13.921-64.046,1.12"/>
			<path fill="none" stroke="#515151" stroke-miterlimit="10" d="M457.004,638.049c-19.699,1.852-39.594,1.06-59.244-2.068
				c-8.691-1.375-17.463-3.239-25.656-7.385c-17.253-8.717-29.624-25.649-38.926-44.014c-2.357-4.657-4.558-9.389-6.544-14.125
				c-8.992-21.443-15.583-44.257-19.815-67.578c-4.133-22.779-5.41-46.408-11.336-69.942c-5.379-21.371-11.922-43.302-22.016-62.377
				c-8.112-15.229-19.223-28.675-32.945-35.922c-3.802-2.021-7.761-3.546-11.855-4.522c-15.988-3.866-32.051,1.076-46.863,8.972
				c-6.56,3.499-12.894,7.559-18.998,11.688c-11.542,7.767-23.183,15.799-34.806,22.784c-20.838,12.434-43.003,25.292-64.752,17.843
				c-11.509-3.94-25.845-3.518-36.194-13.455C11.66,363.161,4.618,342.105-4.27,324.75c-0.862-1.685-1.764-3.339-2.684-4.976
				c-11.392-20.156-26.49-35.849-44.802-45.024c-18.979-9.508-43.004-11.004-61.457,4.083"/>
			<path fill="none" stroke="#515151" stroke-miterlimit="10" d="M459.7,629.944c-19.252,1.844-38.707,0.954-57.896-2.313
				c-8.481-1.438-17.027-3.375-25.039-7.412c-16.924-8.514-29.382-24.664-38.952-42.289c-2.431-4.473-4.716-9.021-6.796-13.595
				c-9.39-20.643-16.448-42.743-21.216-65.423c-4.652-22.119-6.54-45.135-12.529-68.096c-5.694-21.824-12.25-44.247-22.449-63.873
				c-8.17-15.629-19.423-29.538-33.357-37.119c-3.865-2.114-7.897-3.725-12.078-4.771c-16.352-4.128-32.776,0.893-47.997,8.88
				c-6.74,3.54-13.261,7.643-19.552,11.788c-11.917,7.813-24.016,15.803-36.133,22.621c-21.74,12.156-43.489,17.31-67.231,15.803
				c-11.676-0.746-24.813-4.104-34.875-13.595c-15.056-14.199-22.571-34.1-31.888-50.292c-0.906-1.573-1.85-3.114-2.811-4.64
				c-11.911-18.771-27.291-32.701-45.354-40.326c-18.538-7.831-41.438-8.093-58.869,7.039"/>
			<path fill="none" stroke="#515151" stroke-miterlimit="10" d="M462.395,621.835c-18.809,1.835-37.82,0.857-56.549-2.557
				c-8.273-1.502-16.592-3.503-24.42-7.43c-16.595-8.315-29.138-23.689-38.979-40.565c-2.505-4.295-4.875-8.664-7.047-13.07
				c-9.787-19.849-17.315-41.222-22.621-63.267c-5.164-21.456-7.673-43.858-13.721-66.249c-6.016-22.27-12.579-45.192-22.881-65.368
				c-8.23-16.03-19.623-30.402-33.768-38.316c-3.93-2.212-8.037-3.905-12.302-5.019c-16.716-4.393-33.502,0.711-49.131,8.786
				c-6.919,3.577-13.628,7.726-20.108,11.887c-12.291,7.854-24.848,15.802-37.461,22.459C100.767,375,78.185,379.468,53.699,376.884
				c-11.196-1.186-23.781-4.69-33.556-13.731c-14.718-13.612-22.705-32.354-32.452-47.384c-0.949-1.464-1.936-2.896-2.938-4.309
				c-12.429-17.382-28.081-29.561-45.907-35.63c-18.085-6.159-39.872-5.176-56.279,10.004"/>
			<path fill="none" stroke="#515151" stroke-miterlimit="10" d="M465.09,613.731c-18.365,1.823-36.934,0.757-55.201-2.802
				c-8.063-1.565-16.158-3.639-23.801-7.457c-16.269-8.112-28.897-22.704-39.007-38.838c-2.579-4.113-5.03-8.305-7.297-12.546
				c-10.184-19.047-18.179-39.703-24.024-61.108c-5.678-20.791-8.816-42.584-14.914-64.401
				c-6.348-22.717-12.905-46.134-23.313-66.866c-8.289-16.429-19.822-31.269-34.18-39.513c-3.994-2.304-8.174-4.084-12.526-5.262
				c-17.08-4.665-34.228,0.521-50.266,8.688c-7.098,3.618-13.995,7.805-20.661,11.982c-12.666,7.903-25.681,15.808-38.789,22.3
				c-23.543,11.597-46.978,15.459-72.188,11.712c-10.725-1.595-22.748-5.268-32.236-13.863
				c-14.381-13.028-22.848-30.608-33.014-44.479c-0.994-1.354-2.023-2.675-3.067-3.975c-12.946-15.992-28.863-26.434-46.459-30.932
				c-17.625-4.503-38.305-2.262-53.691,12.959"/>
			<path fill="none" stroke="#515151" stroke-miterlimit="10" d="M467.786,605.624c-17.918,1.816-36.049,0.654-53.854-3.047
				c-7.854-1.627-15.723-3.768-23.184-7.476c-15.939-7.911-28.658-21.723-39.035-37.114c-2.65-3.935-5.187-7.95-7.547-12.022
				c-10.579-18.246-19.04-38.184-25.426-58.949c-6.191-20.133-9.967-41.305-16.106-62.555
				c-6.692-23.165-13.233-47.081-23.746-68.367c-8.348-16.824-20.021-32.128-34.592-40.708c-4.056-2.398-8.312-4.263-12.749-5.508
				c-17.445-4.929-34.954,0.342-51.4,8.596c-7.279,3.658-14.36,7.89-21.217,12.082c-13.039,7.947-26.513,15.807-40.116,22.136
				c-24.444,11.318-48.766,14.673-74.667,9.669c-10.267-1.98-21.717-5.853-30.916-14.001c-14.044-12.436-22.99-28.858-33.579-41.572
				c-1.036-1.244-2.108-2.454-3.193-3.642c-13.464-14.604-29.64-23.331-47.012-26.232c-17.159-2.868-36.738,0.653-51.104,15.92"/>
			<path fill="none" stroke="#515151" stroke-miterlimit="10" d="M470.481,597.519c-17.473,1.804-35.164,0.554-52.506-3.291
				c-7.645-1.69-15.287-3.903-22.564-7.503c-15.611-7.709-28.419-20.738-39.062-35.389c-2.725-3.754-5.343-7.588-7.798-11.492
				c-10.97-17.453-19.903-36.669-26.831-56.795c-6.701-19.47-11.124-40.021-17.3-60.713c-7.044-23.596-13.558-48.023-24.178-69.86
				c-8.408-17.223-20.221-32.99-35.003-41.904c-4.12-2.491-8.451-4.44-12.972-5.752c-17.81-5.195-35.679,0.152-52.534,8.501
				c-7.459,3.696-14.729,7.971-21.772,12.181c-13.414,7.986-27.346,15.807-41.444,21.973c-25.346,11.037-50.598,13.981-77.145,7.625
				c-9.83-2.35-20.687-6.435-29.597-14.133c-13.709-11.852-23.129-27.119-34.141-38.67c-1.083-1.138-2.195-2.231-3.322-3.305
				c-13.983-13.221-30.415-20.25-47.565-21.542c-16.692-1.255-35.171,3.571-48.513,18.885"/>
			<path fill="none" stroke="#515151" stroke-miterlimit="10" d="M473.178,589.412c-17.033,1.794-34.279,0.454-51.16-3.537
				c-7.436-1.753-14.852-4.032-21.947-7.521c-15.282-7.509-28.18-19.758-39.086-33.662c-2.802-3.572-5.499-7.233-8.05-10.972
				c-11.362-16.657-20.763-35.148-28.233-54.637c-7.21-18.81-12.287-38.736-18.493-58.866c-7.41-24.03-13.885-48.964-24.61-71.357
				c-8.467-17.621-20.42-33.854-35.415-43.1c-4.184-2.588-8.587-4.621-13.195-5.996c-18.174-5.462-36.404-0.033-53.67,8.403
				c-7.636,3.736-15.094,8.055-22.325,12.28c-13.789,8.03-28.178,15.81-42.771,21.81c-26.247,10.759-52.488,13.388-79.625,5.584
				c-9.409-2.705-19.657-7.018-28.276-14.271c-13.376-11.262-23.279-25.362-34.705-35.765c-1.126-1.027-2.281-2.012-3.45-2.971
				c-14.501-11.836-31.196-17.194-48.118-16.844c-16.229,0.337-33.604,6.487-45.924,21.842"/>
			<path fill="none" stroke="#515151" stroke-miterlimit="10" d="M475.875,581.307c-16.588,1.786-33.396,0.351-49.814-3.781
				c-7.225-1.817-14.414-4.168-21.33-7.55c-14.953-7.307-27.969-18.748-39.113-31.936c-2.881-3.385-5.653-6.871-8.301-10.442
				c-11.75-15.868-21.59-33.65-29.636-52.481c-7.688-18.163-13.453-37.446-19.685-57.021c-7.787-24.46-14.213-49.908-25.042-72.851
				c-8.526-18.024-20.621-34.723-35.826-44.299c-4.248-2.681-8.726-4.8-13.42-6.246c-18.538-5.724-37.128-0.215-54.803,8.313
				c-7.816,3.775-15.46,8.133-22.879,12.375c-14.164,8.078-29.012,15.813-44.1,21.65c-27.148,10.48-54.445,12.896-82.103,3.541
				c-9.015-3.049-18.627-7.599-26.957-14.406c-13.042-10.667-23.42-23.615-35.268-32.864c-1.172-0.913-2.368-1.788-3.578-2.632
				c-15.017-10.444-32.088-14.851-48.669-12.149c-15.69,2.559-32.038,9.4-43.336,24.804"/>
			<path fill="none" stroke="#515151" stroke-miterlimit="10" d="M478.571,573.198c-16.145,1.779-32.51,0.253-48.465-4.026
				c-7.02-1.879-13.98-4.294-20.713-7.568c-14.626-7.105-27.727-17.767-39.142-30.21c-2.955-3.206-5.804-6.522-8.549-9.919
				c-12.112-15.097-22.457-32.132-31.04-50.324c-8.205-17.501-14.627-36.156-20.879-55.172c-8.178-24.885-14.54-50.852-25.475-74.35
				c-8.585-18.422-20.819-35.586-36.239-45.496c-4.311-2.775-8.863-4.979-13.642-6.489c-18.903-5.989-37.854-0.402-55.938,8.218
				c-7.997,3.813-15.828,8.215-23.435,12.474c-14.537,8.123-29.844,15.815-45.426,21.492c-28.052,10.194-56.486,12.495-84.583,1.493
				c-8.647-3.389-17.612-8.162-25.637-14.544c-12.73-10.047-23.568-21.854-35.832-29.957c-1.216-0.805-2.454-1.567-3.704-2.298
				c-15.536-9.06-32.806-11.146-49.223-7.45c-15.354,3.458-30.472,12.315-40.748,27.76"/>
			<path fill="none" stroke="#515151" stroke-miterlimit="10" d="M481.264,565.094c-15.697,1.766-31.621,0.151-47.115-4.271
				c-6.809-1.942-13.547-4.431-20.096-7.594c-14.296-6.901-27.48-16.784-39.167-28.487c-3.027-3.019-5.961-6.161-8.802-9.394
				c-12.509-14.298-23.322-30.61-32.443-48.164c-8.72-16.843-15.804-34.861-22.071-53.33c-8.583-25.294-14.867-51.792-25.907-75.843
				c-8.645-18.82-21.019-36.445-36.649-46.691c-4.375-2.87-9.002-5.158-13.866-6.734c-19.268-6.261-38.581-0.589-57.073,8.122
				c-8.176,3.853-16.193,8.299-23.989,12.573c-14.914,8.168-30.678,15.813-46.754,21.328c-28.953,9.918-58.616,12.193-87.062-0.55
				c-8.31-3.725-16.579-8.747-24.318-14.679c-12.391-9.457-23.731-20.063-36.394-27.052c-1.264-0.689-2.54-1.345-3.833-1.967
				c-16.053-7.67-33.645-8.146-49.774-2.75c-14.949,5.002-28.906,15.229-38.158,30.721"/>
			<path fill="none" stroke="#515151" stroke-miterlimit="10" d="M483.963,556.984c-36.648,4.232-74.625-11.564-104.443-38.887
				c-29.816-27.324-51.833-65.457-66.161-106.363c-9.006-25.705-15.195-52.736-26.339-77.342
				c-11.143-24.604-28.532-47.355-51.152-54.868c-28.31-9.404-56.709,6.711-82.75,20.704
				c-42.824,23.008-92.996,41.218-137.622,18.572c-22.227-11.285-40.952-31.887-63.917-40.595
				c-31.84-12.072-68.734,3.229-85.897,35.624"/>
		</g>
		<g>
			<path fill="none" stroke="#515151" stroke-miterlimit="10" d="M848.03,305.561c-1.343,19.4-3.667,38.703-6.956,57.773
				c-1.462,8.479-3.184,17.107-7.149,24.373c-10.135,18.574-31.408,22.842-50.069,22.479c-17.187-0.332-34.338-3.098-50.976-8.221
				c-16.486-5.074-32.749-12.506-49.78-12.891c-17.029-0.379-35.69,8.34-42.523,26.834c-4.065,11.002-3.317,23.891,0.221,35.145
				c3.537,11.258,9.65,21.115,16.21,30.271c7.51,10.482,16.017,20.938,18.627,34.338c2.702,13.871-2.045,29.381-11.621,37.977
				c-13.622,12.229-32.532,9.391-49.611,8.723c-21.7-0.848-44.354,3.184-62.259,17.74c-17.9,14.559-29.781,41.438-24.624,66.43"/>
			<path fill="none" stroke="#515151" stroke-miterlimit="10" d="M843.808,302.428c-1.306,19.092-3.651,38.078-6.998,56.801
				c-1.488,8.324-3.24,16.785-7.144,23.936c-7.643,14.008-21.592,19.938-35.897,21.959c-4.318,0.611-8.667,0.867-12.886,0.883
				c-16.77,0.063-33.549-2.26-49.864-6.891c-16.184-4.576-32.18-11.574-48.917-11.703c-9.234-0.07-18.918,2.252-27.135,7.197
				c-7.43,4.471-13.675,11.168-17.105,20.191c-0.397,1.043-0.751,2.104-1.063,3.18c-3.07,10.59-2.07,22.51,1.181,33.113
				c0.795,2.592,1.715,5.117,2.732,7.578c3.55,8.584,8.285,16.488,13.198,23.986c7.236,11.078,15.026,22.15,17.232,35.799
				c2.193,13.572-2.336,28.598-11.672,37.074c-13.244,12.008-31.526,9.666-47.983,9.455c-0.93-0.014-1.86-0.016-2.792-0.01
				c-20.027,0.137-40.521,4.807-56.753,18.609c-16.976,14.537-28.03,40.777-22.695,65.035"/>
			<path fill="none" stroke="#515151" stroke-miterlimit="10" d="M839.586,299.295c-1.269,18.783-3.637,37.451-7.041,55.826
				c-1.515,8.172-3.296,16.465-7.138,23.502c-7.499,13.744-21.037,19.781-34.95,22.053c-4.2,0.689-8.434,1.035-12.547,1.148
				c-16.352,0.457-32.759-1.42-48.752-5.557c-15.881-4.08-31.614-10.229-48.055-10.518c-9.527-0.168-19.507,2.395-28.048,7.369
				c-7.717,4.496-14.293,11.311-17.909,20.574c-0.418,1.07-0.792,2.162-1.122,3.271c-3.239,10.904-2.151,23.18,1.139,34.168
				c0.804,2.682,1.729,5.295,2.744,7.844c3.541,8.873,8.182,17.141,12.907,25.014c6.962,11.676,14.044,23.35,15.839,37.262
				c1.711,13.256-2.627,27.816-11.724,36.172c-12.867,11.789-30.52,9.943-46.354,10.186c-0.895,0.014-1.79,0.035-2.687,0.068
				c-19.248,0.656-38.836,5.643-54.146,19.393c-16.1,14.459-26.277,40.117-20.766,63.641"/>
			<path fill="none" stroke="#515151" stroke-miterlimit="10" d="M835.365,296.163c-1.231,18.475-3.621,36.824-7.083,54.854
				c-1.541,8.02-3.354,16.143-7.132,23.066c-7.355,13.48-20.483,19.623-34.003,22.146c-4.084,0.766-8.202,1.203-12.208,1.414
				c-15.935,0.854-31.97-0.58-47.642-4.225c-15.577-3.582-31.046-9.656-47.19-9.33c-9.827,0.197-20.096,2.537-28.963,7.543
				c-8.004,4.52-14.91,11.453-18.711,20.955c-0.44,1.1-0.834,2.223-1.182,3.365c-3.409,11.215-2.233,23.846,1.096,35.223
				c0.812,2.768,1.741,5.471,2.757,8.109c3.532,9.16,8.078,17.789,12.614,26.041c6.689,12.271,13.07,24.527,14.445,38.723
				c1.252,12.93-2.918,27.033-11.775,35.268c-12.488,11.57-29.513,10.221-44.726,10.918c-0.859,0.039-1.72,0.086-2.579,0.145
				c-18.47,1.178-37.128,6.514-51.54,20.18c-15.198,14.41-24.526,39.457-18.838,62.244"/>
			<path fill="none" stroke="#515151" stroke-miterlimit="10" d="M831.143,293.03c-1.195,18.166-3.606,36.199-7.126,53.879
				c-1.566,7.867-3.409,15.822-7.126,22.631c-7.211,13.219-19.928,19.467-33.056,22.242c-3.966,0.844-7.969,1.371-11.869,1.682
				c-15.517,1.248-31.18,0.258-46.529-2.893c-15.274-3.086-30.482-8.678-46.328-8.146c-10.126,0.34-20.685,2.682-29.876,7.717
				c-8.292,4.545-15.528,11.596-19.515,21.338c-0.461,1.127-0.875,2.281-1.24,3.457c-3.579,11.529-2.314,24.516,1.053,36.277
				c0.819,2.855,1.755,5.648,2.769,8.375c3.523,9.449,7.993,18.432,12.323,27.07c6.442,12.854,12.108,25.693,13.052,40.184
				c0.82,12.594-3.21,26.25-11.827,34.365c-12.11,11.352-28.507,10.496-43.098,11.65c-0.823,0.064-1.648,0.137-2.473,0.219
				c-17.69,1.697-35.419,7.385-48.933,20.965c-14.299,14.367-22.774,38.797-16.909,60.852"/>
			<path fill="none" stroke="#515151" stroke-miterlimit="10" d="M826.921,289.897c-1.158,17.857-3.591,35.572-7.168,52.906
				c-1.593,7.713-3.466,15.5-7.12,22.195c-7.068,12.955-19.374,19.309-32.108,22.336c-3.85,0.92-7.736,1.539-11.53,1.947
				c-15.1,1.645-30.391,1.098-45.418-1.561c-14.972-2.588-29.919-7.682-45.465-6.959c-10.426,0.486-21.273,2.824-30.79,7.891
				c-8.579,4.568-16.146,11.738-20.317,21.719c-0.483,1.156-0.917,2.34-1.3,3.549c-3.749,11.844-2.396,25.186,1.01,37.334
				c0.827,2.943,1.769,5.824,2.781,8.639c3.514,9.738,7.892,19.082,12.031,28.1c6.174,13.449,11.159,26.848,11.657,41.645
				c0.412,12.246-3.501,25.467-11.878,33.463c-11.732,11.131-27.501,10.771-41.47,12.381c-0.788,0.09-1.577,0.189-2.365,0.295
				c-16.906,2.262-33.712,8.26-46.326,21.75c-13.398,14.328-21.023,38.137-14.98,59.457"/>
			<path fill="none" stroke="#515151" stroke-miterlimit="10" d="M822.699,286.764c-1.12,17.549-3.574,34.945-7.21,51.932
				c-1.619,7.561-3.521,15.18-7.113,21.762c-6.925,12.693-18.82,19.152-31.162,22.428c-3.731,1-7.503,1.709-11.191,2.215
				c-14.683,2.041-29.596,1.904-44.306-0.227c-14.663-2.125-29.356-6.678-44.602-5.773c-10.727,0.637-21.862,2.969-31.704,8.063
				c-8.867,4.596-16.765,11.881-21.12,22.102c-0.506,1.186-0.96,2.398-1.36,3.641c-3.918,12.158-2.478,25.854,0.969,38.389
				c0.835,3.031,1.781,6.002,2.792,8.906c3.505,10.025,7.791,19.732,11.74,29.127c5.904,14.043,10.226,27.99,10.263,43.104
				c0.029,11.895-3.791,24.686-11.929,32.563c-11.355,10.912-26.494,11.049-39.841,13.113c-0.754,0.115-1.507,0.24-2.26,0.369
				c-16.126,2.781-32.003,9.139-43.72,22.535c-12.499,14.291-19.271,37.477-13.051,58.063"/>
			<path fill="none" stroke="#515151" stroke-miterlimit="10" d="M818.477,283.631c-1.083,17.24-3.56,34.32-7.252,50.957
				c-1.646,7.408-3.579,14.859-7.108,21.326c-6.78,12.432-18.266,18.996-30.214,22.523c-3.615,1.076-7.271,1.877-10.853,2.482
				c-14.266,2.436-28.808,2.738-43.194,1.104c-14.361-1.631-28.795-5.66-43.739-4.586c-11.026,0.793-22.451,3.111-32.618,8.234
				c-9.154,4.621-17.382,12.025-21.923,22.484c-0.526,1.213-1.001,2.459-1.419,3.734c-4.088,12.469-2.56,26.521,0.926,39.443
				c0.843,3.119,1.795,6.178,2.805,9.17c3.496,10.314,7.688,20.385,11.447,30.156c5.633,14.639,9.313,29.123,8.87,44.564
				c-0.331,11.537-4.066,23.92-11.98,31.66c-10.955,10.715-25.488,11.324-38.213,13.844c-0.718,0.141-1.436,0.291-2.152,0.445
				c-15.346,3.303-30.294,10.021-41.113,23.32c-11.598,14.258-17.52,36.818-11.123,56.668"/>
			<path fill="none" stroke="#515151" stroke-miterlimit="10" d="M814.255,280.499c-1.046,16.934-3.544,33.693-7.294,49.984
				c-1.672,7.254-3.636,14.537-7.103,20.891c-6.638,12.168-17.712,18.838-29.267,22.617c-3.498,1.154-7.039,2.045-10.514,2.748
				c-13.849,2.83-28.02,3.576-42.084,2.438c-14.059-1.139-28.231-4.637-42.875-3.402c-11.328,0.955-23.04,3.256-33.532,8.41
				c-9.441,4.645-18,12.166-22.726,22.865c-0.549,1.242-1.043,2.518-1.479,3.826c-4.258,12.783-2.642,27.191,0.883,40.498
				c0.851,3.207,1.808,6.355,2.816,9.436c3.487,10.604,7.586,21.035,11.156,31.184c5.361,15.238,8.417,30.254,7.476,46.027
				c-0.667,11.174-4.356,23.139-12.032,30.758c-10.574,10.496-24.481,11.6-36.584,14.574c-0.683,0.168-1.364,0.344-2.045,0.523
				c-14.56,3.844-28.583,10.904-38.507,24.104c-10.696,14.229-15.769,36.158-9.194,55.273"/>
			<path fill="none" stroke="#515151" stroke-miterlimit="10" d="M810.034,277.366c-1.009,16.625-3.528,33.066-7.337,49.01
				c-1.698,7.102-3.691,14.217-7.096,20.457c-6.494,11.904-17.158,18.68-28.32,22.711c-3.381,1.23-6.806,2.213-10.175,3.014
				c-13.431,3.227-27.23,4.412-40.972,3.77c-13.757-0.643-27.668-3.598-42.012-2.215c-11.629,1.123-23.629,3.398-34.446,8.582
				c-9.729,4.67-18.618,12.311-23.528,23.248c-0.571,1.27-1.085,2.576-1.539,3.918c-4.427,13.098-2.723,27.859,0.841,41.555
				c0.859,3.295,1.821,6.531,2.829,9.701c3.478,10.891,7.481,21.686,10.864,32.211c5.088,15.834,7.545,31.377,6.081,47.488
				c-0.982,10.811-4.645,22.355-12.083,29.855c-10.195,10.279-23.475,11.875-34.955,15.307c-0.648,0.191-1.294,0.393-1.939,0.598
				c-13.778,4.359-26.871,11.793-35.9,24.889c-9.793,14.203-14.017,35.498-7.265,53.879"/>
			<path fill="none" stroke="#515151" stroke-miterlimit="10" d="M805.812,274.233c-0.972,16.316-3.514,32.441-7.379,48.037
				c-1.725,6.947-3.748,13.895-7.091,20.02c-6.35,11.643-16.604,18.523-27.372,22.807c-3.264,1.309-6.573,2.381-9.836,3.281
				c-13.014,3.621-26.442,5.248-39.86,5.102c-13.456-0.148-27.105-2.557-41.149-1.029c-11.93,1.295-24.218,3.541-35.359,8.756
				c-10.018,4.693-19.236,12.451-24.332,23.629c-0.592,1.299-1.126,2.635-1.598,4.01c-4.597,13.412-2.805,28.529,0.798,42.609
				c0.867,3.383,1.835,6.709,2.841,9.967c3.469,11.18,7.379,22.338,10.573,33.24c4.814,16.432,6.697,32.5,4.688,48.949
				c-1.276,10.447-4.936,21.574-12.135,28.953c-9.815,10.061-22.469,12.152-33.327,16.037c-0.612,0.219-1.223,0.445-1.832,0.674
				c-12.997,4.879-25.155,12.688-33.294,25.674c-8.888,14.182-12.265,34.84-5.336,52.484"/>
			<path fill="none" stroke="#515151" stroke-miterlimit="10" d="M801.59,271.099c-0.936,16.009-3.498,31.815-7.422,47.063
				c-1.75,6.795-3.805,13.572-7.084,19.586c-6.207,11.379-16.049,18.367-26.426,22.9c-3.146,1.385-6.34,2.549-9.497,3.547
				c-12.596,4.018-25.655,6.088-38.748,6.434c-13.154,0.348-26.542-1.502-40.286,0.158c-12.229,1.477-24.807,3.684-36.274,8.928
				c-10.304,4.719-19.853,12.596-25.134,24.012c-0.614,1.326-1.168,2.695-1.657,4.104c-4.766,13.723-2.886,29.197,0.755,43.664
				c0.875,3.469,1.849,6.885,2.854,10.23c3.46,11.469,7.273,22.99,10.28,34.27c4.54,17.027,5.877,33.625,3.294,50.41
				c-1.552,10.084-5.226,20.793-12.186,28.051c-9.437,9.84-21.463,12.428-31.699,16.77c-0.577,0.242-1.151,0.494-1.726,0.748
				c-12.214,5.402-23.437,13.586-30.687,26.461c-7.977,14.164-10.514,34.178-3.408,51.088"/>
			<path fill="none" stroke="#515151" stroke-miterlimit="10" d="M797.369,267.966c-0.898,15.7-3.483,31.188-7.464,46.091
				c-1.776,6.641-3.861,13.25-7.079,19.148c-6.063,11.117-15.494,18.211-25.478,22.996c-3.029,1.463-6.107,2.717-9.158,3.814
				c-12.179,4.412-24.868,6.928-37.637,7.766c-12.854,0.844-25.977-0.443-39.424,1.342c-12.528,1.664-25.396,3.828-37.188,9.104
				c-10.592,4.742-20.471,12.738-25.938,24.393c-0.635,1.355-1.209,2.754-1.716,4.195c-4.936,14.037-2.968,29.867,0.712,44.721
				c0.883,3.557,1.862,7.061,2.865,10.494c3.451,11.758,7.169,23.643,9.989,35.299c4.265,17.625,5.087,34.754,1.9,51.871
				c-1.811,9.727-5.517,20.01-12.237,27.148c-9.058,9.621-20.457,12.703-30.071,17.5c-0.541,0.268-1.08,0.547-1.618,0.824
				c-11.434,5.92-21.713,14.486-28.08,27.246c-7.063,14.152-8.762,33.518-1.479,49.693"/>
			<path fill="none" stroke="#515151" stroke-miterlimit="10" d="M793.147,264.833c-0.861,15.393-3.468,30.564-7.507,45.117
				c-1.803,6.488-3.917,12.93-7.072,18.715c-5.919,10.855-14.94,18.053-24.531,23.088c-2.912,1.541-5.874,2.887-8.819,4.082
				c-11.761,4.809-24.08,7.768-36.524,9.098c-12.553,1.342-25.41,0.625-38.561,2.529c-12.825,1.859-25.984,3.971-38.102,9.275
				c-10.88,4.77-21.089,12.881-26.74,24.775c-0.657,1.383-1.251,2.813-1.776,4.287c-5.104,14.352-3.049,30.535,0.67,45.775
				c0.892,3.645,1.876,7.238,2.878,10.762c3.441,12.045,7.039,24.299,9.697,36.326c3.953,18.23,4.327,35.893,0.506,53.33
				c-2.054,9.373-5.807,19.229-12.288,26.248c-8.681,9.4-19.438,13-28.442,18.232c-0.506,0.293-1.01,0.596-1.513,0.898
				c-10.656,6.43-19.985,15.393-25.474,28.031c-6.144,14.145-7.01,32.857,0.45,48.299"/>
			<path fill="none" stroke="#515151" stroke-miterlimit="10" d="M788.925,261.7c-0.824,15.084-3.452,29.938-7.549,44.145
				c-1.829,6.336-3.974,12.607-7.066,18.279c-5.776,10.592-14.387,17.895-23.584,23.182c-2.795,1.619-5.643,3.055-8.48,4.348
				c-11.344,5.203-23.292,8.609-35.414,10.432c-12.251,1.84-24.842,1.695-37.696,3.715c-13.122,2.061-26.573,4.113-39.016,9.449
				c-11.167,4.793-21.707,13.023-27.543,25.156c-0.68,1.412-1.293,2.871-1.836,4.379c-5.274,14.666-3.131,31.205,0.627,46.832
				c0.899,3.732,1.889,7.414,2.89,11.025c3.433,12.334,6.937,24.949,9.406,37.354c3.68,18.828,3.601,37.043-0.889,54.793
				c-2.281,9.021-6.099,18.445-12.34,25.344c-8.304,9.18-18.443,13.258-26.813,18.965c-0.472,0.318-0.938,0.646-1.405,0.977
				c-9.865,6.961-18.251,16.299-22.867,28.814c-5.217,14.141-5.259,32.199,2.379,46.904"/>
			<path fill="none" stroke="#515151" stroke-miterlimit="10" d="M784.704,258.567c-0.787,14.775-3.438,29.311-7.591,43.17
				c-1.855,6.184-4.031,12.287-7.062,17.844c-5.632,10.33-13.832,17.738-22.636,23.277c-2.679,1.695-5.41,3.223-8.142,4.615
				c-10.927,5.598-22.505,9.451-34.303,11.762c-11.949,2.342-24.271,2.773-36.834,4.902c-13.416,2.271-27.162,4.256-39.93,9.621
				c-11.454,4.818-22.324,13.166-28.346,25.539c-0.7,1.439-1.334,2.932-1.895,4.473c-5.444,14.977-3.213,31.873,0.584,47.885
				c0.907,3.82,1.902,7.592,2.902,11.291c3.424,12.623,6.832,25.602,9.113,38.383c3.406,19.424,2.913,38.207-2.281,56.254
				c-2.498,8.68-6.392,17.66-12.392,24.441c-7.927,8.959-17.438,13.533-25.186,19.695c-0.436,0.346-0.867,0.697-1.298,1.053
				c-9.087,7.475-16.509,17.211-20.261,29.6c-4.281,14.139-3.507,31.539,4.307,45.51"/>
			<path fill="none" stroke="#515151" stroke-miterlimit="10" d="M780.481,255.434c-0.749,14.468-3.421,28.686-7.633,42.195
				c-1.882,6.031-4.087,11.967-7.055,17.41c-5.488,10.066-13.278,17.582-21.689,23.371c-2.561,1.773-5.177,3.389-7.803,4.881
				c-10.51,5.994-21.716,10.295-33.19,13.096c-11.646,2.842-23.701,3.855-35.971,6.086c-13.707,2.492-27.751,4.4-40.844,9.795
				c-11.742,4.844-22.942,13.311-29.148,25.922c-0.723,1.469-1.377,2.99-1.955,4.564c-5.613,15.291-3.294,32.541,0.543,48.941
				c0.915,3.908,1.915,7.77,2.913,11.557c3.415,12.91,6.729,26.252,8.822,39.41c3.133,20.018,2.259,39.393-3.676,57.715
				c-2.703,8.346-6.683,16.875-12.442,23.539c-7.552,8.738-16.431,13.809-23.557,20.428c-0.401,0.369-0.797,0.748-1.192,1.127
				c-8.314,7.98-14.759,18.121-17.654,30.385c-3.337,14.137-1.755,30.879,6.236,44.115"/>
			<path fill="none" stroke="#515151" stroke-miterlimit="10" d="M776.259,252.301c-0.712,14.159-3.405,28.059-7.675,41.223
				c-1.908,5.877-4.144,11.645-7.049,16.975c-5.346,9.803-12.725,17.424-20.742,23.465c-2.444,1.85-4.944,3.557-7.464,5.146
				c-10.093,6.391-20.927,11.141-32.079,14.428c-11.344,3.346-23.128,4.945-35.107,7.273c-13.997,2.721-28.34,4.543-41.758,9.969
				c-12.029,4.867-23.561,13.451-29.951,26.303c-0.745,1.498-1.419,3.049-2.015,4.656c-5.783,15.605-3.376,33.211,0.5,49.996
				c0.923,3.996,1.929,7.947,2.926,11.822c3.405,13.199,6.624,26.902,8.53,40.439c2.859,20.613,1.646,40.598-5.07,59.176
				c-2.899,8.02-6.976,16.092-12.493,22.637c-7.177,8.516-15.425,14.084-21.929,21.158c-0.366,0.396-0.726,0.799-1.085,1.203
				c-7.535,8.498-13.002,19.033-15.048,31.17c-2.383,14.135-0.004,30.221,8.165,42.721"/>
			<path fill="none" stroke="#515151" stroke-miterlimit="10" d="M772.038,249.168c-0.676,13.852-3.391,27.432-7.718,40.248
				c-1.934,5.725-4.199,11.324-7.043,16.539c-5.201,9.541-12.169,17.268-19.795,23.561c-2.326,1.928-4.711,3.725-7.125,5.414
				c-9.675,6.785-20.136,11.984-30.967,15.76c-11.041,3.848-22.552,6.035-34.245,8.459c-14.283,2.959-28.929,4.686-42.671,10.141
				c-12.317,4.893-24.179,13.596-30.755,26.686c-0.766,1.525-1.46,3.107-2.073,4.748c-5.953,15.92-3.457,33.881,0.457,51.053
				c0.931,4.082,1.942,8.123,2.938,12.086c3.396,13.488,6.521,27.555,8.239,41.469c2.585,21.209,1.072,41.834-6.464,60.637
				c-3.089,7.705-7.271,15.305-12.545,21.734c-6.802,8.291-14.419,14.361-20.301,21.891c-0.33,0.42-0.655,0.848-0.979,1.277
				c-6.769,9.004-11.234,19.939-12.44,31.955c-1.418,14.131,1.748,29.561,10.094,41.328"/>
			<path fill="none" stroke="#515151" stroke-miterlimit="10" d="M767.816,246.036c-0.639,13.543-3.375,26.806-7.76,39.275
				c-1.96,5.57-4.257,11.002-7.037,16.104c-5.058,9.277-11.615,17.109-18.848,23.654c-2.21,2.004-4.479,3.893-6.786,5.68
				c-9.258,7.182-19.339,12.848-29.856,17.092c-10.729,4.369-21.974,7.133-33.381,9.646c-14.566,3.209-29.518,4.828-43.586,10.314
				c-12.604,4.916-24.796,13.736-31.557,27.066c-0.788,1.555-1.502,3.168-2.133,4.842c-6.123,16.23-3.539,34.547,0.414,52.105
				c0.938,4.172,1.955,8.301,2.95,12.354c3.388,13.775,6.417,28.203,7.946,42.496c2.313,21.805,0.541,43.102-7.857,62.098
				c-3.272,7.402-7.576,14.51-12.597,20.832c-6.442,8.057-13.412,14.637-18.672,22.621c-0.295,0.447-0.585,0.898-0.871,1.354
				c-5.987,9.525-9.461,20.844-9.834,32.742c-0.443,14.119,3.499,28.898,12.021,39.932"/>
			<path fill="none" stroke="#515151" stroke-miterlimit="10" d="M763.594,242.902c-0.602,13.235-3.36,26.18-7.803,38.301
				c-1.986,5.418-4.313,10.682-7.031,15.67c-4.914,9.016-11.061,16.953-17.9,23.746c-2.092,2.084-4.246,4.063-6.447,5.947
				c-8.84,7.576-18.549,13.688-28.744,18.426c-10.426,4.865-21.394,8.232-32.519,10.83c-14.844,3.469-30.106,4.973-44.499,10.488
				c-12.892,4.943-25.414,13.881-32.36,27.449c-0.809,1.582-1.543,3.227-2.192,4.934c-6.292,16.545-3.62,35.217,0.372,53.162
				c0.947,4.258,1.969,8.477,2.962,12.617c3.379,14.064,6.313,28.855,7.655,43.523c2.038,22.402,0.048,44.406-9.251,63.559
				c-3.453,7.113-7.867,13.73-12.648,19.932c-6.065,7.836-12.405,14.912-17.043,23.352c-0.26,0.473-0.516,0.949-0.766,1.432
				c-5.231,10.029-7.68,21.738-7.228,33.525c0.541,14.102,5.252,28.238,13.951,38.537"/>
			<path fill="none" stroke="#515151" stroke-miterlimit="10" d="M759.373,239.77c-1.271,29.085-13.76,56.659-31.823,76.403
				c-18.065,19.746-41.343,32.039-65.396,37.988c-15.119,3.74-30.695,5.115-45.413,10.662
				c-14.716,5.545-29.025,16.191-35.415,32.855c-7.994,20.855-1.875,45.031,3.304,67.1c8.518,36.293,13.653,77.693-3.282,109.572
				c-8.437,15.877-21.688,27.84-28.772,44.619c-9.82,23.266-4.984,53.955,11.259,71.453"/>
		</g>
		<g>
			<path fill="none" stroke="#515151" stroke-miterlimit="10" d="M845.53,153.955c9.546,20.082-1.879,46.542-18.511,58.487
				c-16.634,11.944-36.814,13.845-55.932,18.075c-19.118,4.229-39.429,12.443-49.885,31.878
				c-13.367,24.846-6.274,59.965-20.513,84.123c-11.099,18.828-31.919,24.953-50.331,23.934c-10.41-0.574-20.654-5.082-30.968-6.678
				c-46.767-7.227-67.512-58.441-102.393-50.596c-37.771,8.496-49.69,37.828-51.423,54.99c-2.222,21.982-0.173,75.221,45.41,90.707
				c18.52,6.289,37.159,13.529,53.422,25.77c24.349,18.322,37.933,57.854,25.646,88.779c-8.42,21.193-27.288,36.635-29.953,59.85
				c-1.789,15.602,4.686,31.439,14.539,42.002c9.852,10.564,22.682,16.463,35.625,20.014"/>
			<path fill="none" stroke="#515151" stroke-miterlimit="10" d="M844.366,153.288c9.072,21.022-1.927,48.358-18.939,61.021
				c-16.593,12.349-37.06,14.452-56.333,18.229c-19.052,3.734-39.116,10.994-49.913,29.289
				c-13.782,23.395-8.187,57.285-22.468,81.236c-11.399,19.02-31.459,26.287-49.866,26.523c-10.575,0.135-21.286-3.604-32.019-5.086
				c-45.528-6.289-66.159-55.553-100.304-47.939c-36.723,8.205-48.912,36.41-50.979,53.471
				c-2.621,21.627-0.473,72.873,43.044,88.895c17.979,6.619,36.186,14.367,52.246,26.582c23.683,17.932,37.011,55.961,25.773,86.143
				c-7.784,20.908-25.689,36.588-28.399,59.541c-1.876,15.703,4.072,31.543,13.281,42.518c9.313,11.1,21.631,17.924,34.397,22.283"
				/>
			<path fill="none" stroke="#515151" stroke-miterlimit="10" d="M843.201,152.621c8.6,21.962-1.977,50.167-19.368,63.554
				c-16.555,12.743-37.301,15.063-56.732,18.384c-18.984,3.245-38.806,9.544-49.942,26.701
				c-14.196,21.944-10.048,54.636-24.423,78.351c-11.658,19.234-31.02,27.643-49.402,29.109
				c-10.753,0.857-21.912-2.125-33.068-3.492c-44.27-5.424-64.808-52.664-98.215-45.285c-35.674,7.914-48.131,34.992-50.536,51.953
				c-3.016,21.27-0.764,70.557,40.678,87.084c17.448,6.957,35.187,15.236,51.069,27.395c22.979,17.588,36.099,54.078,25.902,83.504
				c-7.147,20.629-24.091,36.541-26.846,59.232c-1.963,15.805,3.456,31.658,12.023,43.033c8.774,11.65,20.579,19.385,33.169,24.555"
				/>
			<path fill="none" stroke="#515151" stroke-miterlimit="10" d="M842.037,151.953c8.126,22.903-2.03,51.969-19.797,66.088
				c-16.523,13.13-37.539,15.678-57.134,18.539c-18.911,2.761-38.493,8.096-49.971,24.112
				c-14.611,20.492-11.939,51.965-26.379,75.465c-11.941,19.434-30.594,29.025-48.937,31.695c-10.94,1.594-22.536-0.65-34.119-1.896
				c-42.995-4.627-63.455-49.779-96.126-42.631c-34.626,7.623-47.347,33.57-50.093,50.434c-3.405,20.91-1.048,68.281,38.313,85.271
				c16.928,7.307,34.2,16.09,49.893,28.207c22.298,17.219,35.192,52.205,26.03,80.867c-6.508,20.357-22.492,36.494-25.293,58.926
				c-2.049,15.904,2.836,31.785,10.766,43.547c8.233,12.213,19.529,20.846,31.942,26.826"/>
			<path fill="none" stroke="#515151" stroke-miterlimit="10" d="M840.873,151.286c7.652,23.844-2.088,53.765-20.227,68.622
				c-16.494,13.51-37.773,16.298-57.533,18.693c-18.837,2.283-38.183,6.647-50,21.523c-15.026,19.041-13.835,49.297-28.334,72.58
				c-12.227,19.633-30.178,30.436-48.473,34.281c-11.134,2.342-23.154,0.816-35.169-0.303
				c-41.707-3.891-62.103-46.891-94.037-39.977c-33.577,7.334-46.558,32.15-49.648,48.916c-3.788,20.551-1.328,66.049,35.945,83.461
				c16.416,7.668,33.216,16.941,48.717,29.02c21.617,16.844,34.296,50.342,26.158,78.229c-5.864,20.094-20.839,36.455-23.739,58.617
				c-2.096,16.012,2.209,31.926,9.508,44.063c7.688,12.785,18.479,22.307,30.714,29.098"/>
			<path fill="none" stroke="#515151" stroke-miterlimit="10" d="M839.708,150.619c7.179,24.784-2.148,55.555-20.655,71.155
				c-16.471,13.884-38.006,16.923-57.935,18.848c-18.758,1.811-37.897,5.173-50.028,18.936
				c-15.476,17.558-15.733,46.623-30.289,69.691c-12.514,19.834-29.766,31.873-48.008,36.871
				c-11.331,3.104-23.771,2.279-36.22,1.289c-40.408-3.211-60.75-44.002-91.948-37.32c-32.529,7.043-45.765,30.727-49.205,47.396
				c-4.166,20.191-1.605,63.865,33.579,81.648c15.914,8.045,32.231,17.791,47.541,29.832c20.938,16.469,33.411,48.492,26.286,75.592
				c-5.216,19.84-19.23,36.41-22.186,58.309c-2.175,16.115,1.576,32.074,8.25,44.578c7.136,13.369,17.427,23.768,29.486,31.367"/>
			<path fill="none" stroke="#515151" stroke-miterlimit="10" d="M838.543,149.951c6.706,25.724-2.213,57.34-21.083,73.688
				c-16.45,14.252-38.236,17.555-58.336,19.002c-18.679,1.345-37.589,3.718-50.058,16.347
				c-15.895,16.099-17.634,43.951-32.243,66.807c-12.803,20.029-29.353,33.334-47.544,39.457
				c-11.529,3.881-24.384,3.734-37.27,2.883c-39.1-2.582-59.398-41.113-89.858-34.666c-31.482,6.752-44.969,29.303-48.763,45.881
				c-4.537,19.828-1.886,61.73,31.213,79.836c15.419,8.434,31.248,18.639,46.364,30.645c20.261,16.09,32.541,46.65,26.415,72.953
				c-4.563,19.592-17.624,36.365-20.632,58c-2.255,16.217,0.934,32.234,6.992,45.096c6.577,13.959,16.376,25.227,28.258,33.637"/>
			<path fill="none" stroke="#515151" stroke-miterlimit="10" d="M837.379,149.284c6.232,26.665-2.281,59.119-21.513,76.222
				c-16.435,14.616-38.464,18.192-58.735,19.157c-18.598,0.885-37.279,2.263-50.087,13.758
				c-16.312,14.64-19.538,41.276-34.198,63.921c-13.095,20.227-28.937,34.818-47.079,42.043c-11.725,4.67-24.995,5.184-38.32,4.479
				c-37.785-2-58.046-38.227-87.77-32.012c-30.434,6.461-44.168,27.881-48.319,44.361c-4.903,19.467-2.171,59.652,28.847,78.023
				c14.93,8.844,30.266,19.488,45.188,31.457c19.586,15.711,31.683,44.82,26.543,70.314c-3.902,19.354-16.019,36.322-19.078,57.695
				c-2.336,16.318,0.282,32.4,5.733,45.609c6.009,14.561,15.326,26.688,27.031,35.908"/>
			<path fill="none" stroke="#515151" stroke-miterlimit="10" d="M836.215,148.617c5.759,27.605-2.354,60.893-21.941,78.756
				c-16.421,14.975-38.691,18.834-59.137,19.312c-18.515,0.432-36.968,0.808-50.115,11.17
				c-16.727,13.182-21.445,38.598-36.154,61.035c-13.388,20.42-28.515,36.318-46.613,44.629
				c-11.917,5.473-25.621,5.211-39.371,6.072c-36.424,2.281-56.693-35.338-85.681-29.357c-29.386,6.172-43.362,26.459-47.876,42.844
				c-5.264,19.107-2.465,57.633,26.481,76.213c14.444,9.271,29.283,20.332,44.012,32.27c18.912,15.326,30.842,43.002,26.671,67.676
				c-3.232,19.123-14.417,36.275-17.525,57.387c-2.418,16.422-0.377,32.57,4.477,46.125c5.431,15.166,14.274,28.148,25.803,38.18"/>
			<path fill="none" stroke="#515151" stroke-miterlimit="10" d="M835.05,147.949c5.286,28.545-2.429,62.664-22.369,81.29
				c-16.412,15.33-38.929,20.14-59.538,19.466c-18.422-0.602-36.654-0.646-50.144,8.581c-17.14,11.725-23.354,35.92-38.109,58.148
				c-13.684,20.615-28.084,37.838-46.149,47.219c-12.104,6.285-26.252,6.527-40.421,7.664
				c-35.042,2.811-55.342-32.449-83.592-26.701c-28.338,5.881-42.552,25.035-47.433,41.324c-5.617,18.748-2.775,55.674,24.115,74.4
				c13.96,9.723,28.303,21.178,42.835,33.082c18.24,14.941,30.021,41.193,26.8,65.039c-2.553,18.898-12.815,36.229-15.972,57.078
				c-2.501,16.523-1.046,32.746,3.219,46.641c4.844,15.777,13.224,29.609,24.575,40.449"/>
			<path fill="none" stroke="#515151" stroke-miterlimit="10" d="M833.886,147.282c4.813,29.486-2.51,64.429-22.799,83.823
				c-16.405,15.682-39.144,20.14-59.938,19.621c-18.349-0.458-36.342-2.099-50.173,5.992
				c-17.552,10.268-25.266,33.241-40.064,55.263c-13.982,20.807-27.646,39.369-45.685,49.805
				c-12.284,7.105-26.884,7.859-41.472,9.258c-33.664,3.23-54.001-29.619-81.503-24.047c-27.301,5.533-41.737,23.615-46.989,39.807
				c-5.965,18.391-3.107,53.775,21.749,72.59c13.472,10.195,27.324,22.021,41.659,33.895c17.57,14.553,29.218,39.391,26.928,62.4
				c-1.859,18.684-11.216,36.184-14.418,56.77c-2.586,16.625-1.725,32.926,1.961,47.156c4.245,16.391,12.173,31.07,23.347,42.721"/>
			<path fill="none" stroke="#515151" stroke-miterlimit="10" d="M832.722,146.615c4.338,30.426-2.595,66.192-23.228,86.356
				c-16.403,16.031-39.369,20.803-60.339,19.775c-18.265-0.895-36.025-3.551-50.201,3.404c-17.961,8.813-27.18,30.559-42.02,52.377
				c-14.282,20.998-27.196,40.908-45.221,52.391c-12.457,7.936-27.515,9.203-42.521,10.854
				c-32.293,3.551-52.648-26.734-79.414-21.393c-26.253,5.24-40.915,22.195-46.545,38.287c-6.309,18.035-3.467,51.938,19.382,70.777
				c12.976,10.697,26.346,22.861,40.483,34.707c16.901,14.162,28.438,37.598,27.056,59.764
				c-1.152,18.473-9.618,36.137-12.864,56.463c-2.671,16.727-2.413,33.104,0.702,47.67c3.637,17.006,11.122,32.531,22.12,44.992"/>
			<path fill="none" stroke="#515151" stroke-miterlimit="10" d="M831.558,145.947c3.864,31.367-2.685,67.949-23.657,88.89
				c-16.402,16.377-39.596,21.471-60.738,19.931c-18.182-1.325-35.711-5.001-50.23,0.814c-18.371,7.359-29.097,27.877-43.975,49.492
				c-14.585,21.186-26.737,42.457-44.756,54.977c-12.623,8.771-28.146,10.559-43.572,12.447
				c-30.931,3.783-51.296-23.848-77.325-18.738c-25.204,4.949-40.091,20.777-46.102,36.77c-6.646,17.68-3.861,50.162,17.016,68.965
				c12.466,11.229,25.37,23.701,39.308,35.521c16.236,13.768,27.682,35.809,27.184,57.125c-0.427,18.266-8.022,36.09-11.311,56.154
				c-2.759,16.828-3.108,33.283-0.556,48.186c3.019,17.621,10.071,33.992,20.892,47.264"/>
			<path fill="none" stroke="#515151" stroke-miterlimit="10" d="M830.393,145.28c3.392,32.307-2.775,69.705-24.085,91.424
				c-16.405,16.721-39.823,22.146-61.14,20.085c-18.1-1.751-35.394-6.45-50.259-1.772c-18.779,5.908-31.015,25.191-45.93,46.604
				c-14.889,21.375-26.269,44.014-44.292,57.566c-12.781,9.609-28.771,11.928-44.622,14.039
				c-29.579,3.941-49.944-20.961-75.236-16.082c-24.156,4.658-39.26,19.361-45.658,35.252c-6.977,17.326-4.296,48.439,14.649,67.152
				c11.935,11.787,24.396,24.537,38.131,36.332c15.572,13.373,26.952,34.023,27.313,54.488c0.318,18.063-6.427,36.043-9.757,55.846
				c-2.847,16.93-3.811,33.461-1.813,48.701c2.391,18.234,9.021,35.453,19.664,49.533"/>
			<path fill="none" stroke="#515151" stroke-miterlimit="10" d="M829.229,144.613c2.918,33.247-2.871,71.456-24.514,93.958
				c-16.411,17.063-40.053,22.828-61.541,20.239c-18.019-2.17-35.076-7.896-50.287-4.361c-19.188,4.459-32.935,22.506-47.886,43.719
				c-15.195,21.561-25.79,45.57-43.826,60.152c-12.934,10.455-29.396,13.318-45.673,15.633
				c-28.243,4.018-48.592-18.07-73.147-13.428c-23.107,4.371-38.425,17.947-45.215,33.734c-7.303,16.977-4.779,46.77,12.284,65.34
				c11.374,12.379,23.423,25.373,36.954,37.146c14.911,12.975,26.246,32.238,27.44,51.85c1.087,17.857-4.834,35.996-8.204,55.537
				c-2.937,17.031-4.519,33.637-3.07,49.217c1.753,18.846,7.969,36.914,18.436,51.805"/>
			<path fill="none" stroke="#515151" stroke-miterlimit="10" d="M828.065,143.945c2.444,34.188-2.973,73.204-24.943,96.491
				c-16.419,17.402-40.283,23.515-61.94,20.394c-17.939-2.586-34.761-9.342-50.316-6.95c-19.597,3.013-34.857,19.819-49.841,40.833
				c-15.505,21.744-25.303,47.133-43.361,62.738c-13.078,11.303-29.854,16.357-46.724,17.229
				c-27.186,1.402-47.238-15.182-71.059-10.773c-22.059,4.082-37.585,16.537-44.771,32.215c-7.624,16.631-5.317,45.145,9.918,63.529
				c10.773,13,22.453,26.203,35.778,37.957c14.253,12.572,25.568,30.447,27.568,49.211c1.882,17.652-3.242,35.949-6.65,55.232
				c-3.028,17.131-5.235,33.811-4.329,49.73c1.107,19.457,6.919,38.375,17.209,54.076"/>
			<path fill="none" stroke="#515151" stroke-miterlimit="10" d="M826.9,143.278c1.972,35.128-3.076,74.95-25.371,99.025
				c-16.429,17.741-40.517,24.209-62.342,20.549c-17.862-2.997-34.443-10.787-50.346-9.539
				c-20.005,1.568-36.78,17.131-51.795,37.947c-15.815,21.926-24.808,48.693-42.897,65.324
				c-13.217,12.152-30.466,17.678-47.773,18.822c-25.867,1.711-45.886-12.289-68.969-8.119c-21.01,3.797-36.74,15.131-44.329,30.697
				c-7.939,16.287-5.918,43.549,7.552,61.717c10.122,13.652,21.486,27.033,34.602,38.771c13.597,12.168,24.918,28.65,27.697,46.572
				c2.704,17.438-1.651,35.902-5.097,54.924c-3.121,17.232-5.956,33.982-5.587,50.246c0.455,20.063,5.868,39.834,15.98,56.348"/>
			<path fill="none" stroke="#515151" stroke-miterlimit="10" d="M825.736,142.611c1.498,36.068-3.185,76.693-25.8,101.558
				c-16.442,18.078-40.753,24.911-62.743,20.704c-17.786-3.403-34.128-12.228-50.374-12.128
				c-20.415,0.127-38.706,14.44-53.75,35.061c-16.129,22.109-24.305,50.258-42.433,67.914
				c-13.35,13.002-31.083,18.969-48.824,20.414c-24.557,2.002-44.532-9.395-66.88-5.463c-19.961,3.512-35.891,13.727-43.886,29.178
				c-8.252,15.949-6.584,41.973,5.186,59.906c9.406,14.332,20.522,27.857,33.426,39.582c12.943,11.762,24.292,26.842,27.825,43.936
				c3.557,17.211-0.063,35.854-3.543,54.615c-3.216,17.332-6.681,34.15-6.845,50.762c-0.204,20.666,4.816,41.295,14.753,58.617"/>
			<path fill="none" stroke="#515151" stroke-miterlimit="10" d="M824.572,141.943c1.024,37.009-3.298,78.434-26.229,104.092
				c-16.457,18.413-40.99,25.618-63.143,20.858c-17.714-3.806-33.817-13.641-50.403-14.716
				c-20.83-1.279-40.633,11.749-55.705,32.175c-16.444,22.287-23.796,51.82-41.969,70.5c-13.477,13.854-31.704,20.232-49.874,22.008
				c-23.253,2.273-43.171-6.457-64.791-2.809c-18.904,3.266-35.035,12.33-43.441,27.66c-8.561,15.613-7.321,40.398,2.818,58.094
				c8.614,15.035,19.563,28.68,32.25,40.396c12.292,11.352,23.689,25.014,27.953,41.297c4.441,16.965,1.525,35.807-1.989,54.307
				c-3.312,17.434-7.409,34.314-8.103,51.277c-0.869,21.266,3.766,42.756,13.524,60.889"/>
			<path fill="none" stroke="#515151" stroke-miterlimit="10" d="M823.408,141.276c0.551,37.95-3.412,80.172-26.658,106.626
				c-16.475,18.747-41.233,26.329-63.544,21.013c-17.643-4.205-33.505-15.09-50.432-17.305
				c-21.245-2.731-42.599,9.027-57.661,29.289c-16.804,22.434-23.279,53.381-41.503,73.086
				c-13.6,14.705-32.333,21.461-50.925,23.604c-21.958,2.529-41.818-3.57-62.702-0.154c-17.856,2.975-34.176,10.934-42.998,26.141
				c-8.865,15.283-8.13,38.809,0.453,56.283c7.735,15.748,18.605,29.496,31.073,41.207c11.646,10.939,23.107,23.162,28.081,38.66
				c5.358,16.697,3.083,35.752-0.437,54c-3.436,17.525-8.141,34.475-9.36,51.791c-1.539,21.859,2.716,44.217,12.298,63.16"/>
			<path fill="none" stroke="#515151" stroke-miterlimit="10" d="M822.243,140.609c0.078,38.89-3.568,81.875-27.087,109.159
				c-16.519,19.059-41.479,27.047-63.943,21.167c-17.577-4.601-33.194-16.538-50.461-19.893
				c-21.659-4.182-44.511,6.347-59.616,26.403c-17.104,22.622-22.759,54.942-41.039,75.673
				c-13.718,15.557-32.97,22.648-51.975,25.197c-20.674,2.771-40.467-0.682-60.613,2.5c-16.808,2.686-33.313,9.547-42.555,24.625
				c-9.167,14.955-9.011,37.18-1.913,54.469c6.759,16.467,17.654,30.311,29.896,42.021c11.001,10.523,22.544,21.285,28.21,36.021
				c6.306,16.398,4.682,35.705,1.117,53.691c-3.522,17.627-8.876,34.633-10.618,52.307c-2.213,22.451,1.664,45.678,11.069,65.432"/>
			<path fill="none" stroke="#515151" stroke-miterlimit="10" d="M821.079,139.941c-0.396,39.83-3.653,83.642-27.516,111.693
				c-16.514,19.414-41.729,27.769-64.345,21.321c-17.512-4.992-32.882-17.986-50.489-22.481
				c-22.074-5.634-46.423,3.667-61.571,23.516c-17.404,22.813-22.233,56.502-40.574,78.262
				c-13.832,16.408-33.621,23.787-53.025,26.789c-19.403,3.004-39.114,2.207-58.524,5.156c-15.76,2.395-32.444,8.16-42.111,23.105
				c-9.465,14.633-9.96,35.494-4.279,52.658c5.682,17.166,16.708,31.119,28.721,42.832c10.359,10.107,21.989,19.377,28.338,33.385
				c7.28,16.064,6.28,35.658,2.671,53.383c-3.609,17.729-9.613,34.787-11.876,52.822c-2.892,23.039,0.613,47.139,9.842,67.701"/>
		</g>
		<g>
			<path fill="none" stroke="#515151" stroke-miterlimit="10" d="M790.927,338.471c-15.029,18.951-40.94,22.189-60.907,11.398
				s-34.165-33.359-41.454-57.891c-7.289-24.533-8.376-51.032-7.804-77.032c0.552-25.03,2.438-51.059-5.601-74.214
				c-12.369-35.632-46.517-55.681-79.027-55.695c-32.511-0.014-63.443,16.547-91.201,36.605
				c-19.633,14.187-42.325,30.983-63.931,21.656c-19.713-8.51-29.033-36.015-29.262-60.88c-0.379-41.379,19.228-82.2,49.442-102.936
				c13.735-9.427,29.128-14.792,44.038-21.24c14.91-6.45,29.842-14.351,41.061-27.658c11.22-13.307,18.127-33.084,14.02-51.255"/>
			<path fill="none" stroke="#515151" stroke-miterlimit="10" d="M792.94,333.18c-15.821,19.375-42.563,22.82-63.359,11.836
				c-20.796-10.982-35.772-34.219-43.331-59.684c-7.113-23.945-8.266-49.803-7.849-75.176c0.399-24.439,2.059-49.819-5.807-72.409
				c-6.548-18.808-19.223-33.23-34.519-42.571c-12.957-7.912-27.776-12.15-42.291-12.324c-31.665-0.386-61.945,15.275-89.163,34.356
				c-19.261,13.496-41.444,29.51-62.585,20.593c-19.343-8.139-28.599-34.427-29.531-58.329c-1.106-28.366,7.021-57.22,22.857-79.314
				c6.521-9.058,14.267-16.889,22.938-23.042c6.9-4.895,14.253-8.749,21.746-12.223c7.17-3.325,14.479-6.318,21.662-9.575
				c9.763-4.426,19.506-9.492,28.119-16.356c4.346-3.46,8.4-7.374,12.028-11.874c10.825-13.473,17.254-33.181,12.924-51.138"/>
			<path fill="none" stroke="#515151" stroke-miterlimit="10" d="M794.953,327.889c-16.612,19.799-44.188,23.451-65.812,12.273
				c-21.625-11.176-37.38-35.076-45.209-61.475c-6.937-23.36-8.154-48.576-7.893-73.322c0.247-23.847,1.679-48.58-6.013-70.604
				c-6.399-18.326-18.67-32.448-33.516-41.68c-12.574-7.817-26.957-12.075-41.077-12.414c-30.818-0.758-60.447,14.002-87.124,32.107
				c-18.89,12.805-40.564,28.037-61.239,19.53c-18.972-7.768-28.171-32.849-29.801-55.777c-1.951-27.447,4.514-56.149,19.784-78.499
				c6.244-9.139,13.84-17.024,22.364-23.28c6.779-4.97,14.029-8.921,21.416-12.487c7.07-3.415,14.283-6.508,21.36-9.869
				c9.618-4.566,19.188-9.771,27.583-16.772c4.233-3.523,8.16-7.494,11.652-12.031c10.431-13.638,16.381-33.278,11.828-51.021"/>
			<path fill="none" stroke="#515151" stroke-miterlimit="10" d="M796.965,322.6c-17.404,20.219-45.811,24.08-68.264,12.711
				s-38.987-35.938-47.086-63.268c-6.761-22.775-8.044-47.349-7.938-71.468c0.094-23.256,1.3-47.34-6.219-68.799
				c-6.251-17.844-18.117-31.666-32.514-40.789c-12.191-7.723-26.138-11.999-39.861-12.505c-29.973-1.13-58.949,12.73-85.086,29.858
				c-18.518,12.113-39.684,26.563-59.894,18.467c-18.602-7.397-27.754-31.281-30.07-53.226
				c-2.802-26.543,2.028-55.059,16.712-77.684c5.978-9.211,13.413-17.16,21.789-23.516c6.658-5.046,13.808-9.094,21.087-12.751
				c6.971-3.504,14.088-6.698,21.06-10.163c9.473-4.707,18.867-10.051,27.045-17.187c4.121-3.587,7.931-7.608,11.276-12.188
				c10.067-13.78,15.509-33.375,10.734-50.905"/>
			<path fill="none" stroke="#515151" stroke-miterlimit="10" d="M798.978,317.309c-18.196,20.643-47.435,24.711-70.716,13.148
				c-23.282-11.563-40.594-36.797-48.963-65.06c-6.585-22.188-7.933-46.121-7.983-69.612c-0.058-22.665,0.921-46.101-6.425-66.995
				c-6.103-17.362-17.563-30.884-31.51-39.897c-11.809-7.629-25.319-11.923-38.646-12.595
				c-29.127-1.503-57.451,11.458-83.048,27.609c-18.146,11.422-38.803,25.09-58.548,17.403c-18.23-7.026-27.348-29.723-30.34-50.674
				c-3.664-25.656-0.453-53.966,13.64-76.868c5.713-9.284,12.985-17.296,21.215-23.753c6.537-5.122,13.584-9.267,20.757-13.015
				c6.87-3.594,13.893-6.888,20.758-10.456c9.329-4.848,18.549-10.331,26.509-17.603c4.009-3.651,7.693-7.728,10.9-12.345
				c9.683-13.94,14.636-33.472,9.639-50.789"/>
			<path fill="none" stroke="#515151" stroke-miterlimit="10" d="M800.991,312.018c-18.988,21.066-49.058,25.342-73.168,13.586
				c-24.111-11.754-42.201-37.656-50.841-66.852c-6.408-21.602-7.821-44.893-8.027-67.757c-0.21-22.073,0.542-44.861-6.631-65.19
				c-5.954-16.88-17.011-30.102-30.507-39.006c-11.426-7.535-24.5-11.847-37.433-12.686c-28.28-1.875-55.953,10.186-81.009,25.36
				c-17.774,10.73-37.906,23.576-57.202,16.34c-17.847-6.692-26.957-28.175-30.609-48.123c-4.538-24.785-2.935-52.872,10.566-76.053
				c5.448-9.355,12.56-17.431,20.641-23.99c6.417-5.198,13.362-9.44,20.428-13.279c6.771-3.683,13.697-7.078,20.457-10.75
				c9.184-4.988,18.229-10.61,25.971-18.018c3.896-3.714,7.457-7.848,10.525-12.502c9.297-14.102,13.763-33.569,8.543-50.672"/>
			<path fill="none" stroke="#515151" stroke-miterlimit="10" d="M803.003,306.729c-19.779,21.488-50.681,25.971-75.62,14.021
				c-24.94-11.947-43.809-38.516-52.718-68.643c-6.232-21.017-7.711-43.666-8.072-65.903c-0.362-21.481,0.163-43.622-6.837-63.385
				c-5.806-16.398-16.459-29.319-29.504-38.114c-11.043-7.441-23.682-11.771-36.218-12.777
				c-27.435-2.247-54.455,8.914-78.971,23.111c-17.402,10.039-37.025,22.096-55.856,15.278
				c-17.475-6.327-26.584-26.637-30.88-45.572c-5.429-23.93-5.41-51.774,7.495-75.237c5.185-9.425,12.133-17.567,20.066-24.227
				c6.296-5.273,13.139-9.613,20.098-13.542c6.671-3.773,13.502-7.268,20.155-11.044c9.039-5.128,17.91-10.889,25.434-18.433
				c3.785-3.778,7.22-7.968,10.15-12.66c8.909-14.264,12.89-33.666,7.447-50.555"/>
			<path fill="none" stroke="#515151" stroke-miterlimit="10" d="M805.016,301.438c-20.571,21.91-52.305,26.602-78.072,14.461
				c-25.77-12.141-45.416-39.377-54.595-70.437c-6.057-20.43-7.601-42.438-8.117-64.048c-0.515-20.89-0.217-42.382-7.043-61.58
				c-5.657-15.916-15.906-28.537-28.502-37.223c-10.659-7.347-22.862-11.695-35.002-12.867
				c-26.589-2.619-52.957,7.642-76.933,20.861c-17.03,9.348-36.143,20.618-54.511,14.215c-17.103-5.961-26.231-25.106-31.149-43.021
				c-6.339-23.091-7.888-50.676,4.423-74.422c4.922-9.494,11.705-17.702,19.491-24.463c6.175-5.35,12.917-9.786,19.769-13.807
				c6.571-3.862,13.307-7.458,19.854-11.338c8.894-5.269,17.59-11.168,24.896-18.848c3.672-3.841,6.98-8.089,9.773-12.817
				c8.522-14.428,12.018-33.763,6.353-50.438"/>
			<path fill="none" stroke="#515151" stroke-miterlimit="10" d="M807.029,296.149c-21.363,22.332-53.928,27.23-80.524,14.896
				c-26.598-12.334-47.023-40.236-56.473-72.228c-5.88-19.844-7.489-41.211-8.161-62.194c-0.668-20.298-0.596-41.143-7.249-59.775
				c-5.509-15.435-15.354-27.755-27.499-36.332c-10.277-7.252-22.043-11.619-33.788-12.958c-25.742-2.991-51.459,6.37-74.894,18.612
				c-16.659,8.657-35.261,19.139-53.165,13.152c-16.731-5.595-25.903-23.582-31.419-40.469c-7.272-22.265-10.362-49.575,1.35-73.606
				c4.66-9.563,11.279-17.838,18.918-24.7c6.054-5.425,12.693-9.959,19.438-14.071c6.472-3.952,13.111-7.648,19.553-11.632
				c8.749-5.409,17.271-11.448,24.359-19.263c3.561-3.905,6.743-8.21,9.398-12.974c8.133-14.592,11.145-33.86,5.258-50.322"/>
			<path fill="none" stroke="#515151" stroke-miterlimit="10" d="M809.042,290.858c-22.154,22.756-55.551,27.861-82.977,15.334
				c-27.427-12.525-48.631-41.095-58.35-74.02c-5.704-19.258-7.379-39.983-8.206-60.339c-0.82-19.707-0.975-39.903-7.455-57.97
				c-5.36-14.952-14.801-26.973-26.496-35.44c-9.895-7.158-21.225-11.543-32.573-13.049c-24.896-3.363-49.961,5.098-72.855,16.363
				c-16.287,7.965-34.381,17.662-51.819,12.089c-16.36-5.229-25.601-22.062-31.688-37.918c-8.234-21.448-12.832-48.471-1.723-72.791
				c4.399-9.63,10.853-17.973,18.343-24.937c5.934-5.501,12.472-10.131,19.109-14.334c6.372-4.042,12.916-7.838,19.252-11.926
				c8.604-5.549,16.951-11.727,23.821-19.679c3.448-3.968,6.505-8.331,9.023-13.131c7.742-14.758,10.271-33.957,4.162-50.205"/>
			<path fill="none" stroke="#515151" stroke-miterlimit="10" d="M811.054,285.567c-22.946,23.18-57.175,28.492-85.429,15.771
				c-28.256-12.719-50.238-41.954-60.227-75.811c-5.528-18.672-7.269-38.756-8.251-58.485c-0.973-19.115-1.354-38.664-7.661-56.165
				c-5.212-14.47-14.248-26.191-25.493-34.549c-9.512-7.064-20.406-11.467-31.358-13.139c-24.051-3.736-48.463,3.825-70.817,14.114
				c-15.915,7.274-33.5,16.186-50.474,11.026c-15.989-4.86-25.328-20.541-31.958-35.366c-9.229-20.637-15.3-47.367-4.795-71.975
				c4.14-9.697,10.425-18.109,17.769-25.174c5.813-5.577,12.248-10.305,18.779-14.599c6.272-4.131,12.721-8.028,18.95-12.22
				c8.459-5.689,16.633-12.006,23.285-20.094c3.336-4.032,6.266-8.453,8.647-13.289c7.351-14.924,9.398-34.054,3.066-50.088"/>
			<path fill="none" stroke="#515151" stroke-miterlimit="10" d="M813.067,280.278c-23.738,23.6-58.798,29.121-87.882,16.209
				s-51.844-42.814-62.104-77.605c-5.352-18.086-7.156-37.528-8.296-56.629c-1.124-18.524-1.732-37.424-7.867-54.361
				c-5.063-13.988-13.694-25.408-24.49-33.658c-9.128-6.969-19.586-11.391-30.144-13.229c-23.203-4.108-46.965,2.553-68.777,11.865
				c-15.545,6.583-32.62,14.709-49.128,9.962c-15.62-4.492-25.087-19.017-32.229-32.815c-10.261-19.825-17.767-46.262-7.868-71.16
				c3.882-9.764,9.999-18.245,17.194-25.411c5.691-5.652,12.026-10.477,18.451-14.863c6.171-4.22,12.524-8.218,18.648-12.513
				c8.314-5.83,16.313-12.287,22.747-20.509c3.224-4.096,6.025-8.575,8.271-13.446c6.958-15.092,8.525-34.15,1.972-49.972"/>
			<path fill="none" stroke="#515151" stroke-miterlimit="10" d="M815.08,274.987c-24.53,24.023-60.422,29.752-90.334,16.646
				c-29.913-13.105-53.451-43.674-63.98-79.396c-5.176-17.5-7.046-36.301-8.341-54.775c-1.276-17.933-2.112-36.185-8.073-52.556
				c-4.915-13.506-13.142-24.626-23.487-32.767c-8.745-6.875-18.768-11.315-28.929-13.32c-22.357-4.48-45.467,1.28-66.739,9.616
				c-15.173,5.892-31.74,13.235-47.782,8.899c-15.25-4.122-24.876-17.484-32.498-30.263c-11.333-19.002-20.229-45.156-10.94-70.344
				c3.625-9.831,9.571-18.38,16.62-25.647c5.57-5.729,11.803-10.65,18.121-15.127c6.071-4.31,12.329-8.408,18.347-12.807
				c8.17-5.97,15.994-12.566,22.211-20.924c3.111-4.159,5.785-8.697,7.896-13.603c6.563-15.26,7.652-34.248,0.876-49.855"/>
			<path fill="none" stroke="#515151" stroke-miterlimit="10" d="M817.092,269.696c-25.321,24.447-62.045,30.383-92.786,17.084
				c-30.742-13.297-55.059-44.533-65.857-81.188c-5-16.915-6.936-35.073-8.386-52.92c-1.429-17.341-2.491-34.945-8.279-50.751
				c-4.767-13.024-12.589-23.844-22.484-31.875c-8.362-6.781-17.949-11.239-27.714-13.411c-21.512-4.853-43.969,0.008-64.701,7.367
				c-14.801,5.2-30.861,11.763-46.437,7.836c-14.881-3.751-24.696-15.937-32.768-27.712c-12.448-18.16-22.686-44.047-14.013-69.529
				c3.368-9.896,9.145-18.516,16.045-25.884c5.45-5.804,11.581-10.823,17.792-15.391c5.972-4.399,12.134-8.598,18.046-13.101
				c8.024-6.11,15.674-12.845,21.673-21.34c2.999-4.223,5.546-8.819,7.521-13.76c6.167-15.428,6.779-34.344-0.22-49.738"/>
			<path fill="none" stroke="#515151" stroke-miterlimit="10" d="M819.105,264.406c-26.113,24.87-63.668,31.013-95.238,17.521
				c-31.57-13.49-56.666-45.393-67.735-82.979c-4.823-16.329-6.824-33.846-8.43-51.066c-1.582-16.75-2.87-33.706-8.485-48.946
				c-4.618-12.542-12.036-23.062-21.481-30.984c-7.98-6.687-17.13-11.163-26.5-13.501c-20.665-5.225-42.471-1.264-62.662,5.118
				c-14.43,4.509-29.982,10.291-45.091,6.773c-14.513-3.379-24.544-14.37-33.037-25.161c-13.606-17.287-25.143-42.939-17.086-68.713
				c3.114-9.962,8.719-18.651,15.472-26.121c5.329-5.88,11.357-10.996,17.462-15.655c5.872-4.489,11.938-8.788,17.744-13.395
				c7.88-6.25,15.355-13.125,21.136-21.755c2.888-4.286,5.306-8.941,7.146-13.917c5.769-15.597,5.906-34.441-1.314-49.622"/>
			<path fill="none" stroke="#515151" stroke-miterlimit="10" d="M821.118,259.116c-26.905,25.291-65.292,31.643-97.69,17.959
				c-32.399-13.684-58.273-46.253-69.612-84.773c-4.647-15.742-6.714-32.618-8.475-49.211c-1.734-16.158-3.25-32.466-8.691-47.141
				c-4.47-12.061-11.483-22.28-20.479-30.093c-7.597-6.592-16.311-11.087-25.284-13.592c-19.819-5.597-40.973-2.536-60.624,2.868
				c-14.058,3.818-29.104,8.821-43.745,5.71c-14.144-3.005-24.414-12.776-33.307-22.609c-14.806-16.37-27.596-41.83-20.158-67.898
				c2.86-10.027,8.291-18.787,14.896-26.357c5.208-5.956,11.136-11.169,17.133-15.919c5.772-4.579,11.743-8.978,17.443-13.688
				c7.734-6.391,15.035-13.404,20.599-22.17c2.774-4.35,5.063-9.064,6.769-14.075c5.369-15.766,5.034-34.539-2.409-49.505"/>
			<path fill="none" stroke="#515151" stroke-miterlimit="10" d="M823.13,253.825c-27.696,25.715-66.915,32.271-100.143,18.396
				c-33.229-13.877-59.881-47.113-71.489-86.565c-4.472-15.156-6.604-31.391-8.52-47.356c-1.887-15.566-3.629-31.227-8.897-45.336
				c-4.321-11.578-10.932-21.498-19.477-29.202c-7.214-6.499-15.492-11.011-24.069-13.683c-18.974-5.969-39.475-3.808-58.586,0.619
				c-13.686,3.126-28.227,7.353-42.399,4.648c-13.775-2.629-24.301-11.154-33.577-20.058c-16.04-15.396-30.042-40.721-23.229-67.082
				c2.608-10.092,7.864-18.922,14.322-26.595c5.087-6.032,10.912-11.342,16.803-16.183c5.673-4.668,11.548-9.167,17.142-13.982
				c7.59-6.531,14.717-13.683,20.062-22.585c2.663-4.413,4.82-9.187,6.394-14.232c4.968-15.936,4.161-34.635-3.505-49.388"/>
			<path fill="none" stroke="#515151" stroke-miterlimit="10" d="M825.143,248.535c-28.488,26.138-68.538,32.901-102.595,18.833
				c-34.058-14.068-61.488-47.972-73.367-88.356c-4.295-14.57-6.492-30.163-8.563-45.502c-2.039-14.975-4.008-29.987-9.104-43.531
				c-4.173-11.097-10.379-20.715-18.474-28.311c-6.831-6.404-14.673-10.935-22.855-13.773c-18.127-6.341-37.977-5.08-56.547-1.63
				c-13.314,2.435-27.348,5.887-41.054,3.585c-13.408-2.251-24.197-9.499-33.847-17.507c-17.302-14.359-32.489-39.612-26.303-66.267
				c2.357-10.158,7.438-19.058,13.748-26.831c4.967-6.107,10.69-11.515,16.474-16.447c5.573-4.758,11.353-9.357,16.841-14.276
				c7.444-6.671,14.396-13.962,19.523-23c2.551-4.477,4.579-9.31,6.019-14.389c4.565-16.105,3.288-34.732-4.601-49.271"/>
			<path fill="none" stroke="#515151" stroke-miterlimit="10" d="M827.156,243.245c-29.28,26.56-70.162,33.531-105.047,19.271
				c-34.887-14.263-63.095-48.832-75.244-90.149c-4.119-13.984-6.381-28.936-8.609-43.647c-2.19-14.384-4.387-28.748-9.31-41.727
				c-4.024-10.614-9.825-19.933-17.47-27.419c-6.448-6.31-13.854-10.859-21.641-13.864c-17.281-6.713-36.479-6.353-54.509-3.879
				c-12.942,1.744-26.47,4.422-39.708,2.521c-13.039-1.872-24.092-7.808-34.116-14.955c-18.581-13.249-34.931-38.503-29.375-65.451
				c2.107-10.224,7.011-19.194,13.174-27.068c4.846-6.183,10.467-11.688,16.144-16.71c5.473-4.848,11.157-9.547,16.539-14.57
				c7.301-6.812,14.078-14.242,18.987-23.416c2.438-4.541,4.335-9.432,5.643-14.546c4.16-16.275,2.415-34.829-5.696-49.155"/>
			<path fill="none" stroke="#515151" stroke-miterlimit="10" d="M829.168,237.954c-30.072,26.982-71.785,34.162-107.499,19.708
				c-35.715-14.456-64.702-49.692-77.121-91.942c-3.943-13.398-6.271-27.708-8.654-41.792c-2.344-13.792-4.766-27.508-9.516-39.921
				c-3.876-10.132-9.272-19.151-16.468-26.528c-6.065-6.216-13.035-10.783-20.425-13.955c-16.436-7.085-34.98-7.625-52.471-6.128
				c-12.57,1.052-25.591,2.96-38.362,1.458c-12.671-1.49-23.979-6.083-34.386-12.404c-19.859-12.063-37.37-37.395-32.447-64.636
				c1.859-10.289,6.584-19.329,12.599-27.305c4.725-6.259,10.245-11.86,15.814-16.975c5.373-4.937,10.962-9.737,16.238-14.864
				c7.155-6.953,13.758-14.521,18.449-23.831c2.326-4.604,4.082-9.557,5.267-14.704c3.725-16.451,1.543-34.926-6.79-49.039"/>
			<path fill="none" stroke="#515151" stroke-miterlimit="10" d="M831.181,232.664c-30.863,27.405-73.409,34.792-109.951,20.145
				c-36.544-14.648-66.31-50.551-78.999-93.733c-3.767-12.812-6.159-26.48-8.698-39.938c-2.496-13.201-5.146-26.269-9.722-38.117
				c-3.728-9.65-8.72-18.369-15.465-25.636c-5.683-6.122-12.216-10.708-19.211-14.045c-15.589-7.458-33.482-8.897-50.432-8.377
				c-12.199,0.361-24.715,1.518-37.017,0.396c-12.304-1.088-23.849-4.325-34.655-9.852c-21.128-10.806-39.776-36.283-35.521-63.82
				c1.623-10.354,6.157-19.465,12.025-27.542c4.604-6.334,10.021-12.033,15.484-17.238c5.273-5.027,10.767-9.927,15.937-15.158
				c7.011-7.093,13.439-14.801,17.913-24.247c2.214-4.667,3.842-9.678,4.891-14.861c3.33-16.616,0.67-35.023-7.886-48.922"/>
			<path fill="none" stroke="#515151" stroke-miterlimit="10" d="M833.194,227.374c-31.655,27.828-75.032,35.422-112.403,20.582
				c-37.373-14.84-67.917-51.41-80.876-95.525c-9.989-34.006-11.211-74.208-33.133-99.14c-17.141-19.496-42.637-24.1-66.39-24.762
				c-23.751-0.663-48.226,1.517-70.596-7.968c-22.369-9.484-42.239-35.181-38.593-63.005c2.436-18.59,14.417-33.228,26.605-45.281
				c12.188-12.053,25.616-23.465,33.011-40.113c8.858-19.943,7.042-45.882-4.466-63.823"/>
		</g>
		<g>
			<path fill="none" stroke="#515151" stroke-miterlimit="10" d="M274.892-6.971c6.539,14.37,3.023,33.299-6.361,45.25
				c-9.385,11.949-23.542,17.491-37.315,17.767c-13.772,0.274-27.302-4.216-40.252-9.781c-12.467-5.356-25.17-11.855-38.4-10.777
				c-20.358,1.658-37.209,21.779-43.668,44.721c-6.46,22.942-4.278,48.06,0.291,71.631c3.232,16.672,7.167,36.021-1.808,49.417
				c-8.188,12.225-23.858,13.343-36.397,8.569C50.116,201.88,33.497,179.94,29.075,154.5c-2.01-11.565-1.65-23.492-1.931-35.295
				c-0.281-11.804-1.287-23.91-5.746-34.469C16.938,74.176,8.373,65.375-1.572,64.667"/>
			<path fill="none" stroke="#515151" stroke-miterlimit="10" d="M272.633-9.441c6.594,15.013,3.018,34.569-6.628,47.067
				c-9.646,12.496-24.293,18.455-38.588,18.735c-13.499,0.268-26.779-4.066-39.5-9.396c-12.258-5.131-24.735-11.324-37.69-10.189
				c-5.154,0.45-10.082,2.095-14.667,4.68c-13.147,7.414-23.426,22.528-28.2,39.175c-3.136,10.937-4.291,22.39-4.164,33.921
				c0.132,12.138,1.676,24.375,3.805,36.216c2.935,16.341,6.515,35.216-2.288,48.36c-8.06,12.038-23.374,13.413-35.722,8.971
				c-7.522-2.688-14.514-7.244-20.573-13.219c-10.533-10.396-18.134-24.986-20.983-40.903c-2.037-11.384-1.803-23.13-2.239-34.71
				c-0.176-4.607-0.473-9.251-1.056-13.816c-0.891-6.934-2.443-13.672-5.208-19.826C14.359,75.422,5.833,67.022-3.97,66.482"/>
			<path fill="none" stroke="#515151" stroke-miterlimit="10" d="M270.375-11.912c6.649,15.655,3.012,35.84-6.896,48.884
				c-9.908,13.042-25.044,19.419-39.861,19.705c-13.226,0.26-26.254-3.916-38.747-9.011c-12.048-4.906-24.299-10.793-36.979-9.601
				c-5.042,0.472-9.863,2.097-14.356,4.638c-12.891,7.293-22.949,22.065-27.709,38.351c-3.125,10.695-4.339,21.905-4.317,33.187
				c0.02,11.877,1.393,23.859,3.307,35.457c2.639,16.01,5.863,34.411-2.768,47.304c-7.931,11.85-22.881,13.457-35.047,9.373
				c-7.431-2.495-14.375-6.832-20.399-12.672c-10.449-10.147-17.919-24.575-20.808-40.246c-2.063-11.203-1.955-22.769-2.547-34.125
				c-0.242-4.525-0.608-9.076-1.264-13.539c-1.005-6.783-2.677-13.334-5.518-19.277c-4.688-9.847-13.174-17.846-22.834-18.22"/>
			<path fill="none" stroke="#515151" stroke-miterlimit="10" d="M268.116-14.382c6.705,16.298,3.007,37.111-7.162,50.702
				c-10.169,13.589-25.795,20.382-41.134,20.674c-12.952,0.253-25.731-3.766-37.995-8.626c-11.839-4.681-23.863-10.263-36.27-9.013
				c-4.928,0.494-9.645,2.098-14.045,4.595c-12.634,7.172-22.472,21.602-27.219,37.528c-3.113,10.454-4.387,21.421-4.471,32.452
				c-0.092,11.618,1.109,23.343,2.811,34.696c2.342,15.68,5.212,33.606-3.247,46.247c-7.802,11.663-22.393,13.515-34.373,9.774
				c-7.342-2.292-14.236-6.419-20.225-12.125c-10.366-9.898-17.704-24.164-20.632-39.589c-2.09-11.021-2.108-22.406-2.855-33.54
				c-0.307-4.443-0.743-8.901-1.471-13.26c-1.12-6.633-2.911-12.997-5.828-18.729C9.2,77.915,0.753,70.316-8.765,70.11"/>
			<path fill="none" stroke="#515151" stroke-miterlimit="10" d="M265.857-16.853c6.759,16.94,3.001,38.382-7.43,52.519
				c-10.43,14.136-26.546,21.346-42.407,21.644c-12.679,0.246-25.207-3.616-37.242-8.241c-11.629-4.456-23.427-9.731-35.56-8.425
				c-4.815,0.516-9.427,2.1-13.734,4.553c-12.378,7.051-21.995,21.138-26.728,36.704c-3.103,10.212-4.435,20.938-4.625,31.718
				c-0.203,11.357,0.827,22.828,2.313,33.937c2.045,15.349,4.561,32.802-3.727,45.19c-7.674,11.475-21.907,13.573-33.697,10.176
				c-7.254-2.09-14.097-6.007-20.051-11.577c-10.281-9.648-17.489-23.753-20.456-38.932c-2.116-10.84-2.26-22.045-3.163-32.954
				c-0.372-4.361-0.878-8.726-1.678-12.983c-1.234-6.483-3.145-12.659-6.138-18.18C6.621,79.161-1.788,71.963-11.162,71.924"/>
			<path fill="none" stroke="#515151" stroke-miterlimit="10" d="M263.599-19.323c6.815,17.583,2.996,39.653-7.696,54.336
				c-10.692,14.683-27.297,22.31-43.68,22.612c-12.405,0.239-24.684-3.465-36.49-7.856c-11.42-4.23-22.992-9.201-34.85-7.836
				c-4.703,0.538-9.209,2.101-13.423,4.51c-12.121,6.931-21.518,20.675-26.237,35.88c-3.091,9.971-4.483,20.453-4.778,30.984
				c-0.315,11.098,0.543,22.312,1.817,33.177c1.748,15.018,3.909,31.997-4.207,44.133c-7.545,11.287-21.421,13.633-33.022,10.578
				c-7.167-1.888-13.958-5.595-19.877-11.03c-10.198-9.399-17.274-23.342-20.28-38.275c-2.143-10.659-2.413-21.683-3.471-32.369
				c-0.437-4.279-1.013-8.551-1.886-12.705c-1.349-6.333-3.379-12.322-6.448-17.631C4.042,80.407-4.328,73.61-13.56,73.739"/>
			<path fill="none" stroke="#515151" stroke-miterlimit="10" d="M261.34-21.793c6.87,18.226,2.99,40.924-7.963,56.154
				c-10.953,15.229-28.047,23.273-44.953,23.582c-12.131,0.232-24.159-3.315-35.737-7.471c-11.211-4.005-22.557-8.67-34.14-7.248
				c-4.59,0.559-8.991,2.103-13.112,4.467c-11.865,6.81-21.041,20.211-25.747,35.057c-3.08,9.729-4.531,19.969-4.931,30.25
				c-0.427,10.837,0.26,21.796,1.319,32.417c1.452,14.687,3.257,31.191-4.686,43.076c-7.416,11.1-20.936,13.694-32.347,10.979
				c-7.08-1.684-13.819-5.183-19.703-10.482c-10.114-9.15-17.059-22.932-20.105-37.618c-2.169-10.478-2.564-21.321-3.778-31.784
				c-0.502-4.196-1.148-8.375-2.093-12.427c-1.463-6.182-3.625-11.977-6.758-17.082C1.442,81.665-6.868,75.257-15.957,75.553"/>
			<path fill="none" stroke="#515151" stroke-miterlimit="10" d="M259.082-24.264c6.925,18.868,2.984,42.194-8.23,57.971
				c-11.214,15.776-28.798,24.237-46.226,24.551c-11.858,0.225-23.636-3.165-34.985-7.086c-11.002-3.78-22.121-8.139-33.429-6.66
				c-4.477,0.581-8.773,2.104-12.802,4.425c-11.608,6.689-20.563,19.748-25.256,34.233c-3.068,9.488-4.579,19.484-5.084,29.515
				c-0.539,10.578-0.023,21.281,0.823,31.657c1.155,14.355,2.606,30.387-5.166,42.02c-7.287,10.912-20.452,13.755-31.672,11.381
				c-6.993-1.48-13.68-4.77-19.529-9.935c-10.03-8.901-16.844-22.521-19.929-36.961c-2.196-10.297-2.717-20.959-4.086-31.198
				c-0.567-4.114-1.284-8.201-2.301-12.148c-1.578-6.032-3.859-11.638-7.068-16.534c-5.278-8.054-13.548-14.063-22.495-13.6"/>
			<path fill="none" stroke="#515151" stroke-miterlimit="10" d="M256.823-26.734c6.98,19.51,2.979,43.465-8.497,59.789
				c-11.476,16.323-29.55,25.201-47.499,25.52c-11.584,0.218-23.112-3.015-34.232-6.701c-10.792-3.555-21.685-7.608-32.72-6.072
				c-4.364,0.603-8.554,2.105-12.49,4.382c-11.352,6.568-20.086,19.285-24.765,33.41c-3.057,9.246-4.627,19-5.238,28.781
				c-0.651,10.317-0.306,20.765,0.326,30.897c0.858,14.025,1.954,29.582-5.646,40.963c-7.159,10.725-19.968,13.819-30.998,11.783
				c-6.907-1.275-13.541-4.358-19.354-9.387c-9.946-8.651-16.629-22.11-19.753-36.304c-2.222-10.116-2.847-20.601-4.395-30.613
				c-0.624-4.033-1.411-8.028-2.508-11.871c-1.68-5.885-4.094-11.299-7.378-15.984c-5.394-7.696-13.623-13.306-22.427-12.676"/>
			<path fill="none" stroke="#515151" stroke-miterlimit="10" d="M254.564-29.205c7.036,20.153,2.973,44.736-8.764,61.606
				c-11.737,16.869-30.3,26.165-48.771,26.489c-11.311,0.211-22.588-2.865-33.479-6.316c-10.583-3.329-21.25-7.078-32.01-5.483
				c-4.251,0.624-8.336,2.107-12.18,4.339c-11.095,6.448-19.609,18.821-24.274,32.587c-3.046,9.004-4.675,18.516-5.391,28.046
				c-0.763,10.058-0.59,20.25-0.171,30.137c0.562,13.694,1.303,28.777-6.125,39.906c-7.03,10.537-19.485,13.883-30.323,12.185
				c-6.821-1.069-13.402-3.946-19.181-8.84c-9.863-8.402-16.414-21.7-19.578-35.647c-2.249-9.935-2.999-20.239-4.702-30.028
				c-0.688-3.951-1.546-7.853-2.716-11.592c-1.794-5.736-4.329-10.96-7.688-15.436c-5.509-7.338-13.697-12.549-22.359-11.751"/>
			<path fill="none" stroke="#515151" stroke-miterlimit="10" d="M252.306-31.675c7.091,20.795,2.967,46.007-9.031,63.423
				c-11.999,17.416-31.051,27.128-50.045,27.458c-11.038,0.204-22.064-2.715-32.727-5.931c-10.374-3.104-20.813-6.547-31.299-4.896
				c-4.138,0.646-8.118,2.109-11.869,4.297c-10.838,6.327-19.132,18.357-23.784,31.763c-3.035,8.763-4.723,18.031-5.545,27.312
				c-0.875,9.797-0.873,19.734-0.668,29.377c0.265,13.363,0.651,27.972-6.605,38.849c-6.901,10.349-19.002,13.95-29.648,12.586
				c-6.736-0.863-13.263-3.534-19.006-8.292c-9.779-8.153-16.199-21.289-19.402-34.99c-2.275-9.753-3.15-19.879-5.01-29.443
				c-0.752-3.869-1.681-7.678-2.923-11.314c-1.908-5.586-4.563-10.622-7.999-14.887c-5.623-6.981-13.772-11.792-22.291-10.828"/>
			<path fill="none" stroke="#515151" stroke-miterlimit="10" d="M250.047-34.146c7.146,21.438,2.962,47.278-9.298,65.241
				c-12.26,17.963-31.802,28.092-51.317,28.427c-10.764,0.197-21.541-2.564-31.975-5.545c-10.165-2.879-20.378-6.016-30.589-4.308
				c-4.025,0.668-7.9,2.11-11.558,4.254c-10.582,6.206-18.655,17.895-23.293,30.939c-3.023,8.521-4.771,17.548-5.698,26.579
				c-0.986,9.537-1.156,19.217-1.165,28.617c-0.032,13.032,0,27.167-7.084,37.792c-6.772,10.162-18.521,14.017-28.973,12.988
				c-6.651-0.655-13.125-3.121-18.833-7.745c-9.695-7.903-15.983-20.878-19.227-34.333c-2.301-9.572-3.303-19.517-5.318-28.857
				c-0.817-3.788-1.815-7.503-3.13-11.037c-2.023-5.437-4.797-10.283-8.309-14.338c-5.737-6.624-13.847-11.036-22.223-9.904"/>
			<path fill="none" stroke="#515151" stroke-miterlimit="10" d="M247.789-36.616c7.201,22.081,2.956,48.548-9.565,67.058
				s-32.553,29.056-52.591,29.397c-10.491,0.189-21.017-2.414-31.222-5.161c-9.956-2.654-19.942-5.485-29.879-3.72
				c-3.912,0.69-7.682,2.112-11.247,4.212c-10.325,6.084-18.178,17.431-22.802,30.116c-3.012,8.28-4.819,17.063-5.852,25.844
				c-1.098,9.277-1.438,18.702-1.662,27.857c-0.329,12.701-0.652,26.362-7.564,36.735c-6.644,9.974-18.039,14.086-28.298,13.389
				c-6.566-0.446-12.986-2.709-18.659-7.198c-9.611-7.654-15.769-20.467-19.051-33.676c-2.328-9.391-3.456-19.156-5.626-28.272
				c-0.882-3.706-1.951-7.329-3.337-10.759c-2.137-5.287-5.03-9.945-8.619-13.79c-5.85-6.267-13.922-10.279-22.155-8.98"/>
			<path fill="none" stroke="#515151" stroke-miterlimit="10" d="M245.53-39.086c7.257,22.724,2.951,49.819-9.833,68.876
				c-12.783,19.056-33.303,30.02-53.863,30.366c-10.217,0.183-20.493-2.264-30.47-4.775c-9.747-2.429-19.506-4.955-29.169-3.131
				c-3.799,0.711-7.464,2.114-10.937,4.169c-10.068,5.964-17.7,16.967-22.312,29.292c-3.001,8.038-4.867,16.579-6.005,25.11
				c-1.21,9.017-1.722,18.186-2.159,27.098c-0.625,12.37-1.303,25.557-8.044,35.678c-6.515,9.786-17.558,14.158-27.623,13.791
				c-6.481-0.236-12.847-2.297-18.485-6.65c-9.527-7.405-15.554-20.057-18.875-33.02c-2.354-9.21-3.608-18.794-5.934-27.687
				c-0.948-3.624-2.086-7.153-3.545-10.48c-2.252-5.137-5.263-9.607-8.929-13.241c-5.963-5.911-13.997-9.522-22.087-8.056"/>
			<path fill="none" stroke="#515151" stroke-miterlimit="10" d="M243.271-41.557c7.312,23.366,2.945,51.09-10.099,70.693
				c-13.044,19.603-34.055,30.983-55.137,31.335c-9.943,0.175-19.969-2.114-29.717-4.391c-9.537-2.204-19.071-4.424-28.459-2.543
				c-3.686,0.733-7.246,2.115-10.625,4.126c-9.812,5.843-17.224,16.504-21.821,28.469c-2.99,7.796-4.915,16.095-6.159,24.375
				c-1.322,8.757-2.005,17.67-2.656,26.337c-0.922,12.039-1.955,24.752-8.523,34.622c-6.386,9.599-17.076,14.231-26.948,14.193
				c-6.396-0.025-12.708-1.885-18.311-6.103c-9.443-7.155-15.339-19.646-18.7-32.362c-2.381-9.029-3.762-18.433-6.242-27.102
				c-1.013-3.541-2.222-6.979-3.752-10.203c-2.367-4.987-5.496-9.269-9.239-12.692c-6.075-5.555-14.071-8.766-22.019-7.132"/>
			<path fill="none" stroke="#515151" stroke-miterlimit="10" d="M241.013-44.027c7.367,24.008,2.939,52.361-10.366,72.51
				c-13.306,20.15-34.806,31.947-56.41,32.304c-9.67,0.168-19.445-1.963-28.965-4.005c-9.328-1.979-18.635-3.893-27.749-1.955
				c-3.573,0.755-7.028,2.117-10.314,4.084c-9.555,5.722-16.746,16.041-21.33,27.646c-2.978,7.555-4.963,15.61-6.312,23.641
				c-1.434,8.497-2.288,17.155-3.152,25.578c-1.219,11.708-2.606,23.948-9.003,33.565c-6.257,9.411-16.594,14.307-26.273,14.594
				c-6.312,0.188-12.569-1.472-18.136-5.556c-9.36-6.906-15.124-19.235-18.524-31.706c-2.408-8.848-3.916-18.071-6.55-26.516
				c-1.079-3.459-2.358-6.803-3.96-9.924c-2.483-4.836-5.729-8.932-9.549-12.144c-6.187-5.2-14.146-8.009-21.951-6.208"/>
			<path fill="none" stroke="#515151" stroke-miterlimit="10" d="M238.754-46.498c7.422,24.651,2.934,53.632-10.633,74.328
				s-35.556,32.911-57.683,33.273c-9.396,0.161-18.921-1.813-28.212-3.621c-9.119-1.753-18.2-3.362-27.039-1.367
				c-3.46,0.776-6.81,2.118-10.003,4.041c-9.299,5.602-16.269,15.577-20.839,26.822c-2.967,7.313-5.011,15.126-6.465,22.907
				c-1.546,8.237-2.572,16.639-3.65,24.818c-1.516,11.377-3.258,23.143-9.483,32.508c-6.128,9.224-16.112,14.384-25.598,14.996
				c-6.227,0.401-12.43-1.06-17.962-5.008c-9.276-6.657-14.909-18.825-18.349-31.049c-2.434-8.667-4.07-17.709-6.858-25.931
				c-1.145-3.376-2.494-6.628-4.167-9.646c-2.598-4.686-5.961-8.595-9.859-11.595c-6.298-4.845-14.221-7.252-21.883-5.284"/>
			<path fill="none" stroke="#515151" stroke-miterlimit="10" d="M236.495-48.968c7.478,25.293,2.928,54.902-10.9,76.146
				C211.767,48.42,189.288,61.052,166.64,61.42c-9.123,0.154-18.397-1.663-27.459-3.235c-8.91-1.528-17.764-2.832-26.329-0.778
				c-3.348,0.798-6.592,2.12-9.693,3.998c-9.042,5.481-15.792,15.114-20.349,25.999c-2.956,7.072-5.059,14.642-6.619,22.172
				c-1.658,7.977-2.855,16.124-4.146,24.058c-1.813,11.046-3.91,22.337-9.963,31.451c-6,9.036-15.629,14.464-24.923,15.398
				c-6.141,0.617-12.291-0.648-17.788-4.46c-9.192-6.408-14.694-18.414-18.173-30.392c-2.46-8.485-4.225-17.347-7.166-25.346
				c-1.211-3.294-2.635-6.449-4.375-9.368c-2.723-4.53-6.193-8.259-10.169-11.046c-6.409-4.492-14.295-6.496-21.815-4.36"/>
			<path fill="none" stroke="#515151" stroke-miterlimit="10" d="M234.237-51.438c7.533,25.936,2.922,56.173-11.167,77.963
				s-37.058,34.838-60.229,35.212c-8.85,0.147-17.874-1.513-26.707-2.851c-8.7-1.303-17.328-2.3-25.619-0.19
				c-3.235,0.82-6.374,2.122-9.382,3.956c-8.786,5.36-15.315,14.65-19.858,25.175c-2.945,6.831-5.107,14.158-6.772,21.438
				c-1.77,7.717-3.138,15.608-4.644,23.298c-2.109,10.715-4.561,21.533-10.442,30.394c-5.871,8.848-15.146,14.546-24.248,15.799
				c-6.055,0.833-12.152-0.236-17.615-3.913c-9.108-6.158-14.479-18.003-17.997-29.735c-2.487-8.304-4.393-16.979-7.474-24.76
				c-1.283-3.21-2.77-6.274-4.582-9.091c-2.837-4.38-6.425-7.923-10.48-10.497c-6.521-4.139-14.371-5.739-21.748-3.436"/>
			<path fill="none" stroke="#515151" stroke-miterlimit="10" d="M231.978-53.909c7.588,26.579,2.917,57.444-11.434,79.78
				c-14.351,22.336-37.809,35.802-61.501,36.181c-8.576,0.14-17.35-1.363-25.955-2.465c-8.491-1.078-16.893-1.77-24.909,0.398
				c-3.122,0.842-6.155,2.123-9.071,3.913c-8.529,5.239-14.837,14.187-19.367,24.352c-2.933,6.589-5.155,13.674-6.926,20.704
				c-1.881,7.457-3.421,15.092-5.14,22.538c-2.406,10.384-5.212,20.728-10.922,29.337c-5.743,8.661-14.661,14.629-23.574,16.201
				c-5.968,1.052-12.013,0.177-17.44-3.366c-9.024-5.909-14.263-17.592-17.821-29.078c-2.514-8.123-4.546-16.617-7.782-24.175
				c-1.348-3.128-2.905-6.1-4.79-8.813c-2.952-4.23-6.653-7.595-10.79-9.949c-6.625-3.797-14.445-4.982-21.68-2.512"/>
			<path fill="none" stroke="#515151" stroke-miterlimit="10" d="M229.72-56.379c7.643,27.221,2.911,58.715-11.702,81.598
				c-14.612,22.883-38.56,36.766-62.774,37.15c-8.303,0.133-16.826-1.213-25.202-2.081c-8.281-0.852-16.457-1.239-24.199,0.986
				c-3.009,0.864-5.937,2.125-8.76,3.871c-8.272,5.118-14.361,13.724-18.876,23.528c-2.922,6.347-5.203,13.189-7.079,19.97
				c-1.994,7.197-3.704,14.577-5.638,21.778c-2.703,10.053-5.864,19.923-11.401,28.281c-5.614,8.473-14.174,14.715-22.898,16.603
				c-5.88,1.272-11.875,0.589-17.267-2.818c-8.94-5.66-14.048-17.181-17.646-28.421c-2.54-7.942-4.698-16.256-8.089-23.59
				c-1.413-3.045-3.041-5.924-4.997-8.535c-3.066-4.08-6.887-7.257-11.1-9.399c-6.739-3.442-14.52-4.226-21.612-1.588"/>
			<path fill="none" stroke="#515151" stroke-miterlimit="10" d="M227.461-58.85c7.699,27.864,2.906,59.986-11.968,83.415
				c-14.874,23.43-39.311,37.729-64.047,38.119c-19.069,0.299-39.51-6.815-56.388,3.707C81.86,74.62,74.486,91.7,69.439,108.332
				c-5.047,16.631-8.81,34.337-18.016,48.242c-9.205,13.905-26.06,22.829-39.316,14.733c-8.857-5.41-13.833-16.771-17.47-27.764
				c-3.636-10.995-6.706-22.738-13.602-31.261c-8.263-10.209-21.656-14.076-32.954-9.515"/>
		</g>
	</g>
</g>
</svg>
